G75*
%MOIN*%
%OFA0B0*%
%FSLAX25Y25*%
%IPPOS*%
%LPD*%
%AMOC8*
5,1,8,0,0,1.08239X$1,22.5*
%
%ADD10C,0.00000*%
%ADD11OC8,0.05200*%
%ADD12C,0.05200*%
%ADD13C,0.05150*%
%ADD14C,0.11220*%
%ADD15C,0.05200*%
%ADD16C,0.05937*%
%ADD17C,0.07400*%
%ADD18C,0.01600*%
%ADD19C,0.03169*%
D10*
X0001800Y0002000D02*
X0001800Y0198850D01*
X0198650Y0198850D01*
X0198650Y0002000D01*
X0001800Y0002000D01*
D11*
X0006800Y0017000D03*
X0016800Y0017000D03*
X0021800Y0027000D03*
X0021800Y0067000D03*
X0021800Y0092000D03*
X0061800Y0092000D03*
X0066800Y0032000D03*
X0066800Y0022000D03*
X0101800Y0007000D03*
X0141800Y0007000D03*
X0151800Y0037000D03*
X0181800Y0017000D03*
X0191800Y0017000D03*
X0191800Y0037000D03*
X0151800Y0082000D03*
X0131800Y0142000D03*
X0131800Y0152000D03*
X0101800Y0182000D03*
X0101800Y0192000D03*
X0081800Y0187000D03*
X0076800Y0194500D03*
X0071800Y0187000D03*
X0051800Y0182000D03*
X0051800Y0192000D03*
X0041800Y0165750D03*
D12*
X0061800Y0165750D03*
X0131800Y0082000D03*
D13*
X0161721Y0170701D03*
X0166446Y0173850D03*
X0161721Y0177000D03*
X0166446Y0180150D03*
X0161721Y0183299D03*
X0139674Y0182000D03*
X0131800Y0182000D03*
X0123926Y0182000D03*
D14*
X0181800Y0191370D03*
X0181800Y0162630D03*
D15*
X0114400Y0152000D02*
X0109200Y0152000D01*
X0109200Y0142000D02*
X0114400Y0142000D01*
X0114400Y0132000D02*
X0109200Y0132000D01*
X0109200Y0122000D02*
X0114400Y0122000D01*
X0114400Y0112000D02*
X0109200Y0112000D01*
X0109200Y0102000D02*
X0114400Y0102000D01*
X0114400Y0092000D02*
X0109200Y0092000D01*
X0109200Y0082000D02*
X0114400Y0082000D01*
X0114400Y0072000D02*
X0109200Y0072000D01*
X0109200Y0062000D02*
X0114400Y0062000D01*
X0114400Y0052000D02*
X0109200Y0052000D01*
X0109200Y0042000D02*
X0114400Y0042000D01*
X0114400Y0032000D02*
X0109200Y0032000D01*
X0109200Y0022000D02*
X0114400Y0022000D01*
X0084400Y0022000D02*
X0079200Y0022000D01*
X0079200Y0032000D02*
X0084400Y0032000D01*
X0084400Y0042000D02*
X0079200Y0042000D01*
X0079200Y0052000D02*
X0084400Y0052000D01*
X0084400Y0062000D02*
X0079200Y0062000D01*
X0079200Y0072000D02*
X0084400Y0072000D01*
X0084400Y0082000D02*
X0079200Y0082000D01*
X0079200Y0092000D02*
X0084400Y0092000D01*
X0084400Y0102000D02*
X0079200Y0102000D01*
X0079200Y0112000D02*
X0084400Y0112000D01*
X0084400Y0122000D02*
X0079200Y0122000D01*
X0079200Y0132000D02*
X0084400Y0132000D01*
X0084400Y0142000D02*
X0079200Y0142000D01*
X0079200Y0152000D02*
X0084400Y0152000D01*
D16*
X0116052Y0182000D03*
X0147548Y0182000D03*
D17*
X0193800Y0137000D03*
X0193800Y0127000D03*
X0193800Y0117000D03*
X0193800Y0107000D03*
X0193800Y0097000D03*
X0193800Y0087000D03*
X0193800Y0077000D03*
X0193800Y0067000D03*
X0166800Y0017000D03*
X0146800Y0017000D03*
X0061800Y0057000D03*
X0061800Y0067000D03*
X0061800Y0077000D03*
X0006800Y0077000D03*
X0006800Y0067000D03*
X0006800Y0087000D03*
X0006800Y0097000D03*
X0006800Y0107000D03*
X0006800Y0117000D03*
X0006800Y0127000D03*
X0006800Y0137000D03*
X0016800Y0152000D03*
X0016800Y0162000D03*
X0016800Y0172000D03*
X0016800Y0182000D03*
X0016800Y0192000D03*
X0031800Y0017000D03*
X0051800Y0017000D03*
D18*
X0066800Y0032000D02*
X0081800Y0032000D01*
X0088600Y0030260D02*
X0088600Y0036300D01*
X0089300Y0037000D01*
X0088416Y0037000D01*
X0091800Y0042000D02*
X0081800Y0052000D01*
X0091800Y0042000D02*
X0091800Y0022000D01*
X0088600Y0030260D02*
X0081800Y0023460D01*
X0081800Y0022000D01*
X0096800Y0032000D02*
X0101800Y0027000D01*
X0101800Y0007000D01*
X0111800Y0022000D02*
X0131800Y0022000D01*
X0136800Y0027000D01*
X0136800Y0037000D01*
X0139674Y0039874D01*
X0139674Y0182000D01*
X0133050Y0180750D02*
X0131800Y0182000D01*
X0133050Y0180750D02*
X0133050Y0172000D01*
X0151800Y0172000D02*
X0151800Y0162000D01*
X0151800Y0172000D02*
X0156800Y0177000D01*
X0161721Y0177000D01*
X0165896Y0180699D02*
X0166446Y0180150D01*
X0165896Y0180699D02*
X0165896Y0185028D01*
X0163451Y0187474D01*
X0159992Y0187474D01*
X0153406Y0180888D01*
X0153406Y0178606D01*
X0151800Y0177000D01*
X0166446Y0173850D02*
X0169950Y0173850D01*
X0171800Y0172000D01*
X0171800Y0112000D01*
X0166800Y0107000D01*
X0181800Y0102000D02*
X0186800Y0107000D01*
X0193800Y0107000D01*
X0193800Y0087000D02*
X0181800Y0075000D01*
X0181800Y0067000D01*
X0186800Y0072000D02*
X0186800Y0057000D01*
X0181800Y0052000D01*
X0191800Y0037000D02*
X0191800Y0017000D01*
X0146800Y0017000D02*
X0146800Y0012000D01*
X0141800Y0007000D01*
X0126800Y0027000D02*
X0121800Y0027000D01*
X0126800Y0027000D02*
X0131800Y0032000D01*
X0131800Y0047000D01*
X0131800Y0062000D02*
X0111800Y0042000D01*
X0099300Y0038250D02*
X0099300Y0079500D01*
X0091800Y0087000D01*
X0091800Y0172000D01*
X0096800Y0177000D01*
X0096800Y0182000D02*
X0091800Y0187000D01*
X0091800Y0192000D01*
X0079300Y0192000D01*
X0077250Y0194050D01*
X0081800Y0187000D02*
X0081800Y0172000D01*
X0096800Y0182000D02*
X0101800Y0182000D01*
X0111800Y0162000D02*
X0111800Y0152000D01*
X0101800Y0142000D01*
X0101800Y0107000D01*
X0106800Y0102000D01*
X0111800Y0102000D01*
X0096800Y0097000D02*
X0111800Y0082000D01*
X0126800Y0072000D02*
X0131800Y0077000D01*
X0131800Y0082000D01*
X0096800Y0097000D02*
X0096800Y0147000D01*
X0071800Y0137000D02*
X0071800Y0125750D01*
X0061800Y0092000D02*
X0061800Y0165750D01*
X0063050Y0167000D01*
X0063050Y0180750D01*
X0063050Y0190750D01*
X0061800Y0192000D01*
X0031800Y0187000D02*
X0031800Y0127000D01*
X0026800Y0137000D02*
X0026800Y0177000D01*
X0016800Y0152000D02*
X0016800Y0092000D01*
X0021800Y0092000D01*
X0016800Y0092000D02*
X0016800Y0057000D01*
X0011800Y0064505D02*
X0012100Y0064805D01*
X0012100Y0071700D01*
X0006800Y0077000D01*
X0011800Y0064505D02*
X0011800Y0042000D01*
X0006800Y0037000D01*
X0006800Y0017000D01*
X0016800Y0017000D02*
X0016800Y0022000D01*
X0021800Y0027000D01*
X0031800Y0017000D02*
X0031800Y0047000D01*
X0026800Y0044500D02*
X0029300Y0042000D01*
X0028416Y0042000D01*
X0026800Y0044500D02*
X0026800Y0083250D01*
X0036800Y0087000D02*
X0036800Y0057000D01*
X0046800Y0047000D01*
X0051800Y0037000D02*
X0051800Y0082000D01*
X0061800Y0092000D01*
X0096800Y0037000D02*
X0098050Y0037000D01*
X0099300Y0038250D01*
X0171800Y0067000D02*
X0171800Y0082000D01*
X0176800Y0087000D01*
X0191800Y0077000D02*
X0186800Y0072000D01*
X0191800Y0077000D02*
X0193800Y0077000D01*
D19*
X0181800Y0067000D03*
X0171800Y0067000D03*
X0181800Y0052000D03*
X0176800Y0087000D03*
X0181800Y0102000D03*
X0166800Y0107000D03*
X0126800Y0072000D03*
X0131800Y0062000D03*
X0131800Y0047000D03*
X0136800Y0037000D03*
X0121800Y0027000D03*
X0096800Y0032000D03*
X0096800Y0037000D03*
X0088416Y0037000D03*
X0091800Y0022000D03*
X0051800Y0037000D03*
X0046800Y0047000D03*
X0031800Y0047000D03*
X0028416Y0042000D03*
X0016800Y0057000D03*
X0026800Y0083250D03*
X0036800Y0087000D03*
X0051800Y0082000D03*
X0071800Y0125750D03*
X0071800Y0137000D03*
X0096800Y0147000D03*
X0111800Y0162000D03*
X0096800Y0177000D03*
X0081800Y0172000D03*
X0063050Y0180750D03*
X0061800Y0192000D03*
X0031800Y0187000D03*
X0026800Y0177000D03*
X0026800Y0137000D03*
X0031800Y0127000D03*
X0133050Y0172000D03*
X0151800Y0177000D03*
X0151800Y0162000D03*
M02*
