G75*
%MOIN*%
%OFA0B0*%
%FSLAX25Y25*%
%IPPOS*%
%LPD*%
%AMOC8*
5,1,8,0,0,1.08239X$1,22.5*
%
%ADD10C,0.00000*%
%ADD11OC8,0.05600*%
%ADD12C,0.05600*%
%ADD13C,0.05550*%
%ADD14C,0.11620*%
%ADD15C,0.05600*%
%ADD16C,0.06337*%
%ADD17C,0.07800*%
D10*
X0001800Y0002000D02*
X0001800Y0198850D01*
X0198650Y0198850D01*
X0198650Y0002000D01*
X0001800Y0002000D01*
D11*
X0006800Y0017000D03*
X0016800Y0017000D03*
X0021800Y0027000D03*
X0021800Y0067000D03*
X0021800Y0092000D03*
X0061800Y0092000D03*
X0066800Y0032000D03*
X0066800Y0022000D03*
X0101800Y0007000D03*
X0141800Y0007000D03*
X0151800Y0037000D03*
X0181800Y0017000D03*
X0191800Y0017000D03*
X0191800Y0037000D03*
X0151800Y0082000D03*
X0131800Y0142000D03*
X0131800Y0152000D03*
X0101800Y0182000D03*
X0101800Y0192000D03*
X0081800Y0187000D03*
X0076800Y0194500D03*
X0071800Y0187000D03*
X0051800Y0182000D03*
X0051800Y0192000D03*
X0041800Y0165750D03*
D12*
X0061800Y0165750D03*
X0131800Y0082000D03*
D13*
X0161721Y0170701D03*
X0166446Y0173850D03*
X0161721Y0177000D03*
X0166446Y0180150D03*
X0161721Y0183299D03*
X0139674Y0182000D03*
X0131800Y0182000D03*
X0123926Y0182000D03*
D14*
X0181800Y0191370D03*
X0181800Y0162630D03*
D15*
X0114400Y0152000D02*
X0109200Y0152000D01*
X0109200Y0142000D02*
X0114400Y0142000D01*
X0114400Y0132000D02*
X0109200Y0132000D01*
X0109200Y0122000D02*
X0114400Y0122000D01*
X0114400Y0112000D02*
X0109200Y0112000D01*
X0109200Y0102000D02*
X0114400Y0102000D01*
X0114400Y0092000D02*
X0109200Y0092000D01*
X0109200Y0082000D02*
X0114400Y0082000D01*
X0114400Y0072000D02*
X0109200Y0072000D01*
X0109200Y0062000D02*
X0114400Y0062000D01*
X0114400Y0052000D02*
X0109200Y0052000D01*
X0109200Y0042000D02*
X0114400Y0042000D01*
X0114400Y0032000D02*
X0109200Y0032000D01*
X0109200Y0022000D02*
X0114400Y0022000D01*
X0084400Y0022000D02*
X0079200Y0022000D01*
X0079200Y0032000D02*
X0084400Y0032000D01*
X0084400Y0042000D02*
X0079200Y0042000D01*
X0079200Y0052000D02*
X0084400Y0052000D01*
X0084400Y0062000D02*
X0079200Y0062000D01*
X0079200Y0072000D02*
X0084400Y0072000D01*
X0084400Y0082000D02*
X0079200Y0082000D01*
X0079200Y0092000D02*
X0084400Y0092000D01*
X0084400Y0102000D02*
X0079200Y0102000D01*
X0079200Y0112000D02*
X0084400Y0112000D01*
X0084400Y0122000D02*
X0079200Y0122000D01*
X0079200Y0132000D02*
X0084400Y0132000D01*
X0084400Y0142000D02*
X0079200Y0142000D01*
X0079200Y0152000D02*
X0084400Y0152000D01*
D16*
X0116052Y0182000D03*
X0147548Y0182000D03*
D17*
X0193800Y0137000D03*
X0193800Y0127000D03*
X0193800Y0117000D03*
X0193800Y0107000D03*
X0193800Y0097000D03*
X0193800Y0087000D03*
X0193800Y0077000D03*
X0193800Y0067000D03*
X0166800Y0017000D03*
X0146800Y0017000D03*
X0061800Y0057000D03*
X0061800Y0067000D03*
X0061800Y0077000D03*
X0006800Y0077000D03*
X0006800Y0067000D03*
X0006800Y0087000D03*
X0006800Y0097000D03*
X0006800Y0107000D03*
X0006800Y0117000D03*
X0006800Y0127000D03*
X0006800Y0137000D03*
X0016800Y0152000D03*
X0016800Y0162000D03*
X0016800Y0172000D03*
X0016800Y0182000D03*
X0016800Y0192000D03*
X0031800Y0017000D03*
X0051800Y0017000D03*
M02*
