G75*
%MOIN*%
%OFA0B0*%
%FSLAX25Y25*%
%IPPOS*%
%LPD*%
%AMOC8*
5,1,8,0,0,1.08239X$1,22.5*
%
%ADD10C,0.00000*%
%ADD11OC8,0.05200*%
%ADD12C,0.05200*%
%ADD13C,0.05150*%
%ADD14C,0.11220*%
%ADD15C,0.05200*%
%ADD16C,0.05937*%
%ADD17C,0.07400*%
%ADD18C,0.01600*%
%ADD19C,0.03169*%
D10*
X0001800Y0002000D02*
X0001800Y0198850D01*
X0198650Y0198850D01*
X0198650Y0002000D01*
X0001800Y0002000D01*
D11*
X0006800Y0017000D03*
X0016800Y0017000D03*
X0021800Y0027000D03*
X0021800Y0067000D03*
X0021800Y0092000D03*
X0061800Y0092000D03*
X0066800Y0032000D03*
X0066800Y0022000D03*
X0101800Y0007000D03*
X0141800Y0007000D03*
X0151800Y0037000D03*
X0181800Y0017000D03*
X0191800Y0017000D03*
X0191800Y0037000D03*
X0151800Y0082000D03*
X0131800Y0142000D03*
X0131800Y0152000D03*
X0101800Y0182000D03*
X0101800Y0192000D03*
X0081800Y0187000D03*
X0076800Y0194500D03*
X0071800Y0187000D03*
X0051800Y0182000D03*
X0051800Y0192000D03*
X0041800Y0165750D03*
D12*
X0061800Y0165750D03*
X0131800Y0082000D03*
D13*
X0161721Y0170701D03*
X0166446Y0173850D03*
X0161721Y0177000D03*
X0166446Y0180150D03*
X0161721Y0183299D03*
X0139674Y0182000D03*
X0131800Y0182000D03*
X0123926Y0182000D03*
D14*
X0181800Y0191370D03*
X0181800Y0162630D03*
D15*
X0114400Y0152000D02*
X0109200Y0152000D01*
X0109200Y0142000D02*
X0114400Y0142000D01*
X0114400Y0132000D02*
X0109200Y0132000D01*
X0109200Y0122000D02*
X0114400Y0122000D01*
X0114400Y0112000D02*
X0109200Y0112000D01*
X0109200Y0102000D02*
X0114400Y0102000D01*
X0114400Y0092000D02*
X0109200Y0092000D01*
X0109200Y0082000D02*
X0114400Y0082000D01*
X0114400Y0072000D02*
X0109200Y0072000D01*
X0109200Y0062000D02*
X0114400Y0062000D01*
X0114400Y0052000D02*
X0109200Y0052000D01*
X0109200Y0042000D02*
X0114400Y0042000D01*
X0114400Y0032000D02*
X0109200Y0032000D01*
X0109200Y0022000D02*
X0114400Y0022000D01*
X0084400Y0022000D02*
X0079200Y0022000D01*
X0079200Y0032000D02*
X0084400Y0032000D01*
X0084400Y0042000D02*
X0079200Y0042000D01*
X0079200Y0052000D02*
X0084400Y0052000D01*
X0084400Y0062000D02*
X0079200Y0062000D01*
X0079200Y0072000D02*
X0084400Y0072000D01*
X0084400Y0082000D02*
X0079200Y0082000D01*
X0079200Y0092000D02*
X0084400Y0092000D01*
X0084400Y0102000D02*
X0079200Y0102000D01*
X0079200Y0112000D02*
X0084400Y0112000D01*
X0084400Y0122000D02*
X0079200Y0122000D01*
X0079200Y0132000D02*
X0084400Y0132000D01*
X0084400Y0142000D02*
X0079200Y0142000D01*
X0079200Y0152000D02*
X0084400Y0152000D01*
D16*
X0116052Y0182000D03*
X0147548Y0182000D03*
D17*
X0193800Y0137000D03*
X0193800Y0127000D03*
X0193800Y0117000D03*
X0193800Y0107000D03*
X0193800Y0097000D03*
X0193800Y0087000D03*
X0193800Y0077000D03*
X0193800Y0067000D03*
X0166800Y0017000D03*
X0146800Y0017000D03*
X0061800Y0057000D03*
X0061800Y0067000D03*
X0061800Y0077000D03*
X0006800Y0077000D03*
X0006800Y0067000D03*
X0006800Y0087000D03*
X0006800Y0097000D03*
X0006800Y0107000D03*
X0006800Y0117000D03*
X0006800Y0127000D03*
X0006800Y0137000D03*
X0016800Y0152000D03*
X0016800Y0162000D03*
X0016800Y0172000D03*
X0016800Y0182000D03*
X0016800Y0192000D03*
X0031800Y0017000D03*
X0051800Y0017000D03*
D18*
X0052000Y0017200D02*
X0051600Y0017200D01*
X0051600Y0022500D01*
X0051367Y0022500D01*
X0050512Y0022365D01*
X0049689Y0022097D01*
X0048917Y0021704D01*
X0048217Y0021195D01*
X0047605Y0020583D01*
X0047096Y0019883D01*
X0046703Y0019111D01*
X0046435Y0018288D01*
X0046300Y0017433D01*
X0046300Y0017200D01*
X0051600Y0017200D01*
X0051600Y0016800D01*
X0046300Y0016800D01*
X0046300Y0016567D01*
X0046435Y0015712D01*
X0046703Y0014889D01*
X0047096Y0014117D01*
X0047605Y0013417D01*
X0048217Y0012805D01*
X0048917Y0012296D01*
X0049689Y0011903D01*
X0050512Y0011635D01*
X0051367Y0011500D01*
X0051600Y0011500D01*
X0051600Y0016800D01*
X0052000Y0016800D01*
X0052000Y0017200D01*
X0052000Y0022500D01*
X0052233Y0022500D01*
X0053088Y0022365D01*
X0053911Y0022097D01*
X0054683Y0021704D01*
X0055383Y0021195D01*
X0055995Y0020583D01*
X0056504Y0019883D01*
X0056897Y0019111D01*
X0057165Y0018288D01*
X0057300Y0017433D01*
X0057300Y0017200D01*
X0052000Y0017200D01*
X0052000Y0016800D02*
X0057300Y0016800D01*
X0057300Y0016567D01*
X0057165Y0015712D01*
X0056897Y0014889D01*
X0056504Y0014117D01*
X0055995Y0013417D01*
X0055383Y0012805D01*
X0054683Y0012296D01*
X0053911Y0011903D01*
X0053088Y0011635D01*
X0052233Y0011500D01*
X0052000Y0011500D01*
X0052000Y0016800D01*
X0052000Y0016387D02*
X0051600Y0016387D01*
X0051600Y0017985D02*
X0052000Y0017985D01*
X0052000Y0019584D02*
X0051600Y0019584D01*
X0051600Y0021182D02*
X0052000Y0021182D01*
X0055396Y0021182D02*
X0062400Y0021182D01*
X0062400Y0022000D02*
X0062400Y0020177D01*
X0064977Y0017600D01*
X0066800Y0017600D01*
X0068623Y0017600D01*
X0071200Y0020177D01*
X0071200Y0022000D01*
X0071200Y0023823D01*
X0068623Y0026400D01*
X0066800Y0026400D01*
X0066800Y0022000D01*
X0066800Y0022000D01*
X0071200Y0022000D01*
X0066800Y0022000D01*
X0066800Y0022000D01*
X0066800Y0022000D01*
X0062400Y0022000D01*
X0062400Y0023823D01*
X0064977Y0026400D01*
X0066800Y0026400D01*
X0066800Y0022000D01*
X0066800Y0017600D01*
X0066800Y0022000D01*
X0066800Y0022000D01*
X0062400Y0022000D01*
X0062400Y0022781D02*
X0024086Y0022781D01*
X0023705Y0022400D02*
X0026400Y0025095D01*
X0026400Y0028905D01*
X0023705Y0031600D01*
X0019895Y0031600D01*
X0017200Y0028905D01*
X0017200Y0025095D01*
X0019895Y0022400D01*
X0023705Y0022400D01*
X0025685Y0024379D02*
X0062957Y0024379D01*
X0064555Y0025978D02*
X0026400Y0025978D01*
X0026400Y0027576D02*
X0064718Y0027576D01*
X0064895Y0027400D02*
X0068705Y0027400D01*
X0071400Y0030095D01*
X0071400Y0033905D01*
X0068705Y0036600D01*
X0064895Y0036600D01*
X0063095Y0034800D01*
X0057960Y0034800D01*
X0055384Y0037376D01*
X0055384Y0037713D01*
X0054839Y0039030D01*
X0054669Y0039200D01*
X0075495Y0039200D01*
X0076594Y0038100D01*
X0078285Y0037400D01*
X0084831Y0037400D01*
X0084831Y0036600D01*
X0078285Y0036600D01*
X0076594Y0035900D01*
X0075300Y0034606D01*
X0074600Y0032915D01*
X0074600Y0031085D01*
X0075300Y0029394D01*
X0076594Y0028100D01*
X0078285Y0027400D01*
X0085315Y0027400D01*
X0087006Y0028100D01*
X0088105Y0029200D01*
X0094531Y0029200D01*
X0094770Y0028961D01*
X0096087Y0028416D01*
X0097513Y0028416D01*
X0098830Y0028961D01*
X0099839Y0029970D01*
X0100384Y0031287D01*
X0100384Y0032713D01*
X0099839Y0034030D01*
X0099369Y0034500D01*
X0099839Y0034970D01*
X0100384Y0036287D01*
X0100384Y0037713D01*
X0099839Y0039030D01*
X0099669Y0039200D01*
X0102100Y0039200D01*
X0105874Y0035426D01*
X0106049Y0035354D01*
X0105300Y0034606D01*
X0104600Y0032915D01*
X0104600Y0031085D01*
X0105300Y0029394D01*
X0106594Y0028100D01*
X0108285Y0027400D01*
X0115315Y0027400D01*
X0116818Y0028022D01*
X0118216Y0026624D01*
X0118216Y0026287D01*
X0118761Y0024970D01*
X0119770Y0023961D01*
X0121087Y0023416D01*
X0122513Y0023416D01*
X0123830Y0023961D01*
X0124839Y0024970D01*
X0125384Y0026287D01*
X0125384Y0027713D01*
X0124839Y0029030D01*
X0123830Y0030039D01*
X0122513Y0030584D01*
X0122176Y0030584D01*
X0118403Y0034357D01*
X0118300Y0034606D01*
X0117905Y0035000D01*
X0130054Y0035000D01*
X0134628Y0030426D01*
X0135657Y0030000D01*
X0149840Y0030000D01*
X0158964Y0020876D01*
X0159993Y0020450D01*
X0162508Y0020450D01*
X0162096Y0019883D01*
X0161703Y0019111D01*
X0161435Y0018288D01*
X0161300Y0017433D01*
X0161300Y0017200D01*
X0166600Y0017200D01*
X0166600Y0016800D01*
X0167000Y0016800D01*
X0167000Y0017200D01*
X0172300Y0017200D01*
X0172300Y0017433D01*
X0172165Y0018288D01*
X0171897Y0019111D01*
X0171504Y0019883D01*
X0171092Y0020450D01*
X0174390Y0020450D01*
X0177200Y0017640D01*
X0177200Y0015095D01*
X0179895Y0012400D01*
X0183705Y0012400D01*
X0186400Y0015095D01*
X0186400Y0018905D01*
X0183705Y0021600D01*
X0181160Y0021600D01*
X0177136Y0025624D01*
X0176107Y0026050D01*
X0161710Y0026050D01*
X0154391Y0033369D01*
X0156200Y0035177D01*
X0156200Y0037000D01*
X0156200Y0038823D01*
X0153623Y0041400D01*
X0151800Y0041400D01*
X0151800Y0037000D01*
X0151800Y0037000D01*
X0156200Y0037000D01*
X0151800Y0037000D01*
X0151800Y0037000D01*
X0151800Y0037000D01*
X0147400Y0037000D01*
X0147400Y0038823D01*
X0149977Y0041400D01*
X0151800Y0041400D01*
X0151800Y0037000D01*
X0147400Y0037000D01*
X0147400Y0035600D01*
X0140100Y0035600D01*
X0140384Y0036287D01*
X0140384Y0036624D01*
X0152960Y0049200D01*
X0179531Y0049200D01*
X0179770Y0048961D01*
X0181087Y0048416D01*
X0182513Y0048416D01*
X0183830Y0048961D01*
X0184839Y0049970D01*
X0185384Y0051287D01*
X0185384Y0052713D01*
X0184839Y0054030D01*
X0183830Y0055039D01*
X0182513Y0055584D01*
X0181087Y0055584D01*
X0179770Y0055039D01*
X0179531Y0054800D01*
X0178560Y0054800D01*
X0178710Y0054950D01*
X0179055Y0055250D01*
X0179101Y0055341D01*
X0179174Y0055414D01*
X0179349Y0055837D01*
X0183302Y0063742D01*
X0183830Y0063961D01*
X0184839Y0064970D01*
X0185384Y0066287D01*
X0185384Y0067713D01*
X0184839Y0069030D01*
X0183830Y0070039D01*
X0182513Y0070584D01*
X0181087Y0070584D01*
X0179770Y0070039D01*
X0178761Y0069030D01*
X0178216Y0067713D01*
X0178216Y0066287D01*
X0178260Y0066181D01*
X0177984Y0065629D01*
X0177984Y0077224D01*
X0188100Y0087340D01*
X0188100Y0085866D01*
X0188968Y0083771D01*
X0190571Y0082168D01*
X0190976Y0082000D01*
X0190571Y0081832D01*
X0188968Y0080229D01*
X0188100Y0078134D01*
X0188100Y0075866D01*
X0188968Y0073771D01*
X0190571Y0072168D01*
X0191264Y0071881D01*
X0190917Y0071704D01*
X0190217Y0071195D01*
X0189605Y0070583D01*
X0189096Y0069883D01*
X0188703Y0069111D01*
X0188435Y0068288D01*
X0188300Y0067433D01*
X0188300Y0067200D01*
X0193600Y0067200D01*
X0193600Y0066800D01*
X0194000Y0066800D01*
X0194000Y0061500D01*
X0194233Y0061500D01*
X0195088Y0061635D01*
X0195911Y0061903D01*
X0196650Y0062280D01*
X0196650Y0004000D01*
X0145305Y0004000D01*
X0146400Y0005095D01*
X0146400Y0008905D01*
X0143705Y0011600D01*
X0139895Y0011600D01*
X0137200Y0008905D01*
X0137200Y0005095D01*
X0138295Y0004000D01*
X0105305Y0004000D01*
X0106400Y0005095D01*
X0106400Y0008905D01*
X0103705Y0011600D01*
X0099895Y0011600D01*
X0097200Y0008905D01*
X0097200Y0005095D01*
X0098295Y0004000D01*
X0003800Y0004000D01*
X0003800Y0013495D01*
X0004895Y0012400D01*
X0008705Y0012400D01*
X0011400Y0015095D01*
X0011400Y0018905D01*
X0008705Y0021600D01*
X0004895Y0021600D01*
X0003800Y0020505D01*
X0003800Y0062381D01*
X0003917Y0062296D01*
X0004689Y0061903D01*
X0005512Y0061635D01*
X0006367Y0061500D01*
X0006600Y0061500D01*
X0006600Y0066800D01*
X0007000Y0066800D01*
X0007000Y0067200D01*
X0012300Y0067200D01*
X0012300Y0067433D01*
X0012165Y0068288D01*
X0011897Y0069111D01*
X0011504Y0069883D01*
X0010995Y0070583D01*
X0010383Y0071195D01*
X0009683Y0071704D01*
X0009336Y0071881D01*
X0010029Y0072168D01*
X0011632Y0073771D01*
X0011810Y0074200D01*
X0047357Y0074200D01*
X0048386Y0074626D01*
X0052176Y0078416D01*
X0052513Y0078416D01*
X0053830Y0078961D01*
X0054839Y0079970D01*
X0055384Y0081287D01*
X0055384Y0082713D01*
X0054839Y0084030D01*
X0053830Y0085039D01*
X0052513Y0085584D01*
X0051087Y0085584D01*
X0049770Y0085039D01*
X0048761Y0084030D01*
X0048216Y0082713D01*
X0048216Y0082376D01*
X0045640Y0079800D01*
X0027837Y0079800D01*
X0028830Y0080211D01*
X0029839Y0081220D01*
X0030384Y0082537D01*
X0030384Y0083963D01*
X0029839Y0085280D01*
X0028830Y0086289D01*
X0027513Y0086834D01*
X0027176Y0086834D01*
X0025158Y0088852D01*
X0026400Y0090095D01*
X0026400Y0093440D01*
X0033216Y0086624D01*
X0033216Y0086287D01*
X0033761Y0084970D01*
X0034770Y0083961D01*
X0036087Y0083416D01*
X0037513Y0083416D01*
X0038830Y0083961D01*
X0039839Y0084970D01*
X0040384Y0086287D01*
X0040384Y0087713D01*
X0039839Y0089030D01*
X0038830Y0090039D01*
X0037513Y0090584D01*
X0037176Y0090584D01*
X0028386Y0099374D01*
X0027357Y0099800D01*
X0011810Y0099800D01*
X0011632Y0100229D01*
X0010029Y0101832D01*
X0009624Y0102000D01*
X0010029Y0102168D01*
X0011632Y0103771D01*
X0011810Y0104200D01*
X0065640Y0104200D01*
X0075281Y0094559D01*
X0074600Y0092915D01*
X0074600Y0091085D01*
X0075300Y0089394D01*
X0076594Y0088100D01*
X0078285Y0087400D01*
X0085315Y0087400D01*
X0087006Y0088100D01*
X0088300Y0089394D01*
X0089000Y0091085D01*
X0089000Y0092915D01*
X0088300Y0094606D01*
X0087006Y0095900D01*
X0085315Y0096600D01*
X0081160Y0096600D01*
X0080360Y0097400D01*
X0085315Y0097400D01*
X0087006Y0098100D01*
X0088300Y0099394D01*
X0089000Y0101085D01*
X0089000Y0102915D01*
X0088300Y0104606D01*
X0087006Y0105900D01*
X0085315Y0106600D01*
X0081160Y0106600D01*
X0080360Y0107400D01*
X0085315Y0107400D01*
X0087006Y0108100D01*
X0088300Y0109394D01*
X0089000Y0111085D01*
X0089000Y0112915D01*
X0088300Y0114606D01*
X0087006Y0115900D01*
X0085315Y0116600D01*
X0081160Y0116600D01*
X0080360Y0117400D01*
X0085315Y0117400D01*
X0087006Y0118100D01*
X0088300Y0119394D01*
X0089000Y0121085D01*
X0089000Y0122915D01*
X0088300Y0124606D01*
X0087006Y0125900D01*
X0085315Y0126600D01*
X0081160Y0126600D01*
X0080360Y0127400D01*
X0085315Y0127400D01*
X0087006Y0128100D01*
X0088300Y0129394D01*
X0089000Y0131085D01*
X0089000Y0132915D01*
X0088300Y0134606D01*
X0087006Y0135900D01*
X0085315Y0136600D01*
X0078285Y0136600D01*
X0076594Y0135900D01*
X0075495Y0134800D01*
X0074669Y0134800D01*
X0074839Y0134970D01*
X0075384Y0136287D01*
X0075384Y0137713D01*
X0074839Y0139030D01*
X0074669Y0139200D01*
X0075495Y0139200D01*
X0076594Y0138100D01*
X0078285Y0137400D01*
X0085315Y0137400D01*
X0087006Y0138100D01*
X0088300Y0139394D01*
X0089000Y0141085D01*
X0089000Y0142915D01*
X0088300Y0144606D01*
X0087006Y0145900D01*
X0085315Y0146600D01*
X0078285Y0146600D01*
X0076594Y0145900D01*
X0075495Y0144800D01*
X0011243Y0144800D01*
X0010214Y0144374D01*
X0009426Y0143586D01*
X0008363Y0142522D01*
X0007934Y0142700D01*
X0005666Y0142700D01*
X0003800Y0141927D01*
X0003800Y0196850D01*
X0013615Y0196850D01*
X0013571Y0196832D01*
X0011968Y0195229D01*
X0011100Y0193134D01*
X0011100Y0190866D01*
X0011968Y0188771D01*
X0013571Y0187168D01*
X0013976Y0187000D01*
X0013571Y0186832D01*
X0011968Y0185229D01*
X0011100Y0183134D01*
X0011100Y0180866D01*
X0011968Y0178771D01*
X0013571Y0177168D01*
X0014264Y0176881D01*
X0013917Y0176704D01*
X0013217Y0176195D01*
X0012605Y0175583D01*
X0012096Y0174883D01*
X0011703Y0174111D01*
X0011435Y0173288D01*
X0011300Y0172433D01*
X0011300Y0172200D01*
X0016600Y0172200D01*
X0016600Y0171800D01*
X0011300Y0171800D01*
X0011300Y0171567D01*
X0011435Y0170712D01*
X0011703Y0169889D01*
X0012096Y0169117D01*
X0012605Y0168417D01*
X0013217Y0167805D01*
X0013917Y0167296D01*
X0014264Y0167119D01*
X0013571Y0166832D01*
X0011968Y0165229D01*
X0011100Y0163134D01*
X0011100Y0160866D01*
X0011968Y0158771D01*
X0013571Y0157168D01*
X0013976Y0157000D01*
X0013571Y0156832D01*
X0011968Y0155229D01*
X0011100Y0153134D01*
X0011100Y0150866D01*
X0011968Y0148771D01*
X0013571Y0147168D01*
X0015666Y0146300D01*
X0017934Y0146300D01*
X0020029Y0147168D01*
X0021632Y0148771D01*
X0021810Y0149200D01*
X0075495Y0149200D01*
X0076594Y0148100D01*
X0078285Y0147400D01*
X0085315Y0147400D01*
X0087006Y0148100D01*
X0088300Y0149394D01*
X0089000Y0151085D01*
X0089000Y0152915D01*
X0088300Y0154606D01*
X0087006Y0155900D01*
X0085315Y0156600D01*
X0078285Y0156600D01*
X0076594Y0155900D01*
X0075495Y0154800D01*
X0021810Y0154800D01*
X0021632Y0155229D01*
X0020161Y0156700D01*
X0054857Y0156700D01*
X0055886Y0157126D01*
X0056674Y0157914D01*
X0060195Y0161436D01*
X0060885Y0161150D01*
X0062715Y0161150D01*
X0064406Y0161850D01*
X0065700Y0163144D01*
X0066400Y0164835D01*
X0066400Y0166665D01*
X0065700Y0168356D01*
X0064406Y0169650D01*
X0062715Y0170350D01*
X0060885Y0170350D01*
X0059194Y0169650D01*
X0057900Y0168356D01*
X0057200Y0166665D01*
X0057200Y0166360D01*
X0053140Y0162300D01*
X0044573Y0162300D01*
X0046200Y0163927D01*
X0046200Y0165750D01*
X0046200Y0167573D01*
X0043623Y0170150D01*
X0041800Y0170150D01*
X0041800Y0165750D01*
X0041800Y0165750D01*
X0046200Y0165750D01*
X0041800Y0165750D01*
X0041800Y0165750D01*
X0041800Y0165750D01*
X0037400Y0165750D01*
X0037400Y0167573D01*
X0039977Y0170150D01*
X0041800Y0170150D01*
X0041800Y0165750D01*
X0037400Y0165750D01*
X0037400Y0163927D01*
X0039027Y0162300D01*
X0022500Y0162300D01*
X0022500Y0163134D01*
X0021632Y0165229D01*
X0020029Y0166832D01*
X0019336Y0167119D01*
X0019683Y0167296D01*
X0020383Y0167805D01*
X0020995Y0168417D01*
X0021504Y0169117D01*
X0021897Y0169889D01*
X0022165Y0170712D01*
X0022300Y0171567D01*
X0022300Y0171800D01*
X0017000Y0171800D01*
X0017000Y0172200D01*
X0022300Y0172200D01*
X0022300Y0172433D01*
X0022165Y0173288D01*
X0021897Y0174111D01*
X0021504Y0174883D01*
X0020995Y0175583D01*
X0020383Y0176195D01*
X0019683Y0176704D01*
X0019336Y0176881D01*
X0020029Y0177168D01*
X0021351Y0178490D01*
X0023216Y0176624D01*
X0023216Y0176287D01*
X0023761Y0174970D01*
X0024770Y0173961D01*
X0026087Y0173416D01*
X0027513Y0173416D01*
X0028830Y0173961D01*
X0029839Y0174970D01*
X0030384Y0176287D01*
X0030384Y0177713D01*
X0029839Y0179030D01*
X0028830Y0180039D01*
X0027513Y0180584D01*
X0027176Y0180584D01*
X0023386Y0184374D01*
X0022357Y0184800D01*
X0021810Y0184800D01*
X0021632Y0185229D01*
X0020029Y0186832D01*
X0019624Y0187000D01*
X0020029Y0187168D01*
X0021632Y0188771D01*
X0021810Y0189200D01*
X0025640Y0189200D01*
X0028216Y0186624D01*
X0028216Y0186287D01*
X0028761Y0184970D01*
X0029770Y0183961D01*
X0031087Y0183416D01*
X0032513Y0183416D01*
X0033830Y0183961D01*
X0034839Y0184970D01*
X0035384Y0186287D01*
X0035384Y0187713D01*
X0034839Y0189030D01*
X0033830Y0190039D01*
X0032513Y0190584D01*
X0032176Y0190584D01*
X0028386Y0194374D01*
X0027357Y0194800D01*
X0021810Y0194800D01*
X0021632Y0195229D01*
X0020029Y0196832D01*
X0019985Y0196850D01*
X0072645Y0196850D01*
X0072200Y0196405D01*
X0072200Y0192595D01*
X0073395Y0191400D01*
X0071800Y0191400D01*
X0071800Y0187000D01*
X0076200Y0187000D01*
X0076200Y0188823D01*
X0075123Y0189900D01*
X0078195Y0189900D01*
X0077200Y0188905D01*
X0077200Y0186360D01*
X0076200Y0185360D01*
X0076200Y0187000D01*
X0071800Y0187000D01*
X0071800Y0187000D01*
X0071800Y0187000D01*
X0071800Y0182600D01*
X0073440Y0182600D01*
X0073140Y0182300D01*
X0066288Y0182300D01*
X0066089Y0182780D01*
X0065080Y0183789D01*
X0063763Y0184334D01*
X0062337Y0184334D01*
X0061020Y0183789D01*
X0060011Y0182780D01*
X0059466Y0181463D01*
X0059466Y0180037D01*
X0060011Y0178720D01*
X0061020Y0177711D01*
X0062337Y0177166D01*
X0062674Y0177166D01*
X0062714Y0177126D01*
X0063743Y0176700D01*
X0074857Y0176700D01*
X0075886Y0177126D01*
X0076674Y0177914D01*
X0081160Y0182400D01*
X0083705Y0182400D01*
X0086400Y0185095D01*
X0086400Y0188905D01*
X0083705Y0191600D01*
X0080405Y0191600D01*
X0081400Y0192595D01*
X0081400Y0196405D01*
X0080955Y0196850D01*
X0176518Y0196850D01*
X0175348Y0195681D01*
X0174190Y0192884D01*
X0174190Y0189856D01*
X0175348Y0187059D01*
X0177489Y0184918D01*
X0180286Y0183760D01*
X0183314Y0183760D01*
X0186111Y0184918D01*
X0188252Y0187059D01*
X0189410Y0189856D01*
X0189410Y0192884D01*
X0188252Y0195681D01*
X0187082Y0196850D01*
X0196650Y0196850D01*
X0196650Y0141989D01*
X0194934Y0142700D01*
X0192666Y0142700D01*
X0190571Y0141832D01*
X0188968Y0140229D01*
X0188100Y0138134D01*
X0188100Y0135866D01*
X0188278Y0135437D01*
X0187640Y0134800D01*
X0118105Y0134800D01*
X0117006Y0135900D01*
X0115315Y0136600D01*
X0108285Y0136600D01*
X0106594Y0135900D01*
X0105300Y0134606D01*
X0104600Y0132915D01*
X0104600Y0131085D01*
X0105300Y0129394D01*
X0106594Y0128100D01*
X0108285Y0127400D01*
X0115315Y0127400D01*
X0117006Y0128100D01*
X0118105Y0129200D01*
X0188542Y0129200D01*
X0188100Y0128134D01*
X0188100Y0125866D01*
X0188278Y0125437D01*
X0187640Y0124800D01*
X0118105Y0124800D01*
X0117006Y0125900D01*
X0115315Y0126600D01*
X0108285Y0126600D01*
X0106594Y0125900D01*
X0105300Y0124606D01*
X0104600Y0122915D01*
X0104600Y0121085D01*
X0105300Y0119394D01*
X0106594Y0118100D01*
X0108285Y0117400D01*
X0115315Y0117400D01*
X0117006Y0118100D01*
X0118105Y0119200D01*
X0188542Y0119200D01*
X0188100Y0118134D01*
X0188100Y0115866D01*
X0188968Y0113771D01*
X0190571Y0112168D01*
X0190976Y0112000D01*
X0190571Y0111832D01*
X0188968Y0110229D01*
X0188100Y0108134D01*
X0188100Y0105866D01*
X0188968Y0103771D01*
X0190571Y0102168D01*
X0190976Y0102000D01*
X0190571Y0101832D01*
X0188968Y0100229D01*
X0188100Y0098134D01*
X0188100Y0095866D01*
X0188278Y0095437D01*
X0184600Y0091760D01*
X0184600Y0099731D01*
X0184839Y0099970D01*
X0185384Y0101287D01*
X0185384Y0102713D01*
X0184839Y0104030D01*
X0183830Y0105039D01*
X0182513Y0105584D01*
X0181087Y0105584D01*
X0179770Y0105039D01*
X0178761Y0104030D01*
X0178216Y0102713D01*
X0178216Y0101287D01*
X0178761Y0099970D01*
X0179000Y0099731D01*
X0179000Y0093160D01*
X0176424Y0090584D01*
X0176087Y0090584D01*
X0174770Y0090039D01*
X0173761Y0089030D01*
X0173216Y0087713D01*
X0173216Y0086287D01*
X0173761Y0084970D01*
X0174770Y0083961D01*
X0176087Y0083416D01*
X0176256Y0083416D01*
X0173598Y0080758D01*
X0172811Y0079970D01*
X0172384Y0078941D01*
X0172384Y0070584D01*
X0171087Y0070584D01*
X0169770Y0070039D01*
X0169531Y0069800D01*
X0129669Y0069800D01*
X0129839Y0069970D01*
X0130384Y0071287D01*
X0130384Y0072713D01*
X0129839Y0074030D01*
X0128830Y0075039D01*
X0127513Y0075584D01*
X0126087Y0075584D01*
X0124770Y0075039D01*
X0124531Y0074800D01*
X0118105Y0074800D01*
X0117006Y0075900D01*
X0115315Y0076600D01*
X0108285Y0076600D01*
X0106594Y0075900D01*
X0105300Y0074606D01*
X0104600Y0072915D01*
X0104600Y0071085D01*
X0105300Y0069394D01*
X0106594Y0068100D01*
X0108285Y0067400D01*
X0115315Y0067400D01*
X0117006Y0068100D01*
X0118105Y0069200D01*
X0124531Y0069200D01*
X0124770Y0068961D01*
X0124792Y0068952D01*
X0118716Y0062876D01*
X0118692Y0063030D01*
X0118478Y0063689D01*
X0118163Y0064306D01*
X0117756Y0064866D01*
X0117266Y0065356D01*
X0116706Y0065763D01*
X0116089Y0066078D01*
X0115430Y0066292D01*
X0114746Y0066400D01*
X0111800Y0066400D01*
X0111800Y0062000D01*
X0111800Y0062000D01*
X0111800Y0057600D01*
X0113440Y0057600D01*
X0112440Y0056600D01*
X0108285Y0056600D01*
X0106594Y0055900D01*
X0105300Y0054606D01*
X0104600Y0052915D01*
X0104600Y0051085D01*
X0105300Y0049394D01*
X0106594Y0048100D01*
X0108285Y0047400D01*
X0115315Y0047400D01*
X0117006Y0048100D01*
X0118300Y0049394D01*
X0119000Y0051085D01*
X0119000Y0052915D01*
X0118319Y0054559D01*
X0127960Y0064200D01*
X0128931Y0064200D01*
X0128761Y0064030D01*
X0128216Y0062713D01*
X0128216Y0061287D01*
X0128761Y0059970D01*
X0129770Y0058961D01*
X0131087Y0058416D01*
X0132513Y0058416D01*
X0133830Y0058961D01*
X0134069Y0059200D01*
X0135040Y0059200D01*
X0134890Y0059050D01*
X0134545Y0058750D01*
X0134499Y0058659D01*
X0134426Y0058586D01*
X0134251Y0058163D01*
X0130298Y0050258D01*
X0129770Y0050039D01*
X0128761Y0049030D01*
X0128216Y0047713D01*
X0128216Y0046287D01*
X0128761Y0044970D01*
X0129770Y0043961D01*
X0131087Y0043416D01*
X0132513Y0043416D01*
X0133830Y0043961D01*
X0134839Y0044970D01*
X0135384Y0046287D01*
X0135384Y0047713D01*
X0135340Y0047819D01*
X0138530Y0054200D01*
X0150040Y0054200D01*
X0149426Y0053586D01*
X0136424Y0040584D01*
X0136087Y0040584D01*
X0134770Y0040039D01*
X0133852Y0039121D01*
X0132800Y0040174D01*
X0131771Y0040600D01*
X0118799Y0040600D01*
X0119000Y0041085D01*
X0119000Y0042915D01*
X0118300Y0044606D01*
X0117006Y0045900D01*
X0115315Y0046600D01*
X0108285Y0046600D01*
X0106594Y0045900D01*
X0105300Y0044606D01*
X0105099Y0044121D01*
X0104846Y0044374D01*
X0103817Y0044800D01*
X0088105Y0044800D01*
X0087006Y0045900D01*
X0085315Y0046600D01*
X0078285Y0046600D01*
X0076594Y0045900D01*
X0075495Y0044800D01*
X0049669Y0044800D01*
X0049839Y0044970D01*
X0050384Y0046287D01*
X0050384Y0046624D01*
X0051710Y0047950D01*
X0076957Y0047950D01*
X0078285Y0047400D01*
X0085315Y0047400D01*
X0087006Y0048100D01*
X0088300Y0049394D01*
X0089000Y0051085D01*
X0089000Y0052915D01*
X0088300Y0054606D01*
X0087006Y0055900D01*
X0085315Y0056600D01*
X0078285Y0056600D01*
X0076594Y0055900D01*
X0075300Y0054606D01*
X0074863Y0053550D01*
X0066411Y0053550D01*
X0066632Y0053771D01*
X0067500Y0055866D01*
X0067500Y0058134D01*
X0067322Y0058563D01*
X0067960Y0059200D01*
X0075495Y0059200D01*
X0076594Y0058100D01*
X0078285Y0057400D01*
X0085315Y0057400D01*
X0087006Y0058100D01*
X0088300Y0059394D01*
X0089000Y0061085D01*
X0089000Y0062915D01*
X0088300Y0064606D01*
X0087006Y0065900D01*
X0085315Y0066600D01*
X0078285Y0066600D01*
X0076594Y0065900D01*
X0075495Y0064800D01*
X0066852Y0064800D01*
X0066897Y0064889D01*
X0067165Y0065712D01*
X0067300Y0066567D01*
X0067300Y0066800D01*
X0062000Y0066800D01*
X0062000Y0067200D01*
X0067300Y0067200D01*
X0067300Y0067433D01*
X0067165Y0068288D01*
X0066897Y0069111D01*
X0066852Y0069200D01*
X0075495Y0069200D01*
X0076594Y0068100D01*
X0078285Y0067400D01*
X0085315Y0067400D01*
X0087006Y0068100D01*
X0088300Y0069394D01*
X0089000Y0071085D01*
X0089000Y0072915D01*
X0088300Y0074606D01*
X0087006Y0075900D01*
X0085315Y0076600D01*
X0078285Y0076600D01*
X0076594Y0075900D01*
X0075495Y0074800D01*
X0067960Y0074800D01*
X0067322Y0075437D01*
X0067500Y0075866D01*
X0067500Y0078134D01*
X0066632Y0080229D01*
X0065029Y0081832D01*
X0062934Y0082700D01*
X0060666Y0082700D01*
X0058571Y0081832D01*
X0056968Y0080229D01*
X0056100Y0078134D01*
X0056100Y0075866D01*
X0056968Y0073771D01*
X0058571Y0072168D01*
X0059264Y0071881D01*
X0058917Y0071704D01*
X0058217Y0071195D01*
X0057605Y0070583D01*
X0057096Y0069883D01*
X0056703Y0069111D01*
X0056435Y0068288D01*
X0056300Y0067433D01*
X0056300Y0067200D01*
X0061600Y0067200D01*
X0061600Y0066800D01*
X0056300Y0066800D01*
X0056300Y0066567D01*
X0056435Y0065712D01*
X0056703Y0064889D01*
X0057096Y0064117D01*
X0057605Y0063417D01*
X0058217Y0062805D01*
X0058917Y0062296D01*
X0059264Y0062119D01*
X0058571Y0061832D01*
X0056968Y0060229D01*
X0056100Y0058134D01*
X0056100Y0055866D01*
X0056968Y0053771D01*
X0057189Y0053550D01*
X0049993Y0053550D01*
X0048964Y0053124D01*
X0048176Y0052336D01*
X0046424Y0050584D01*
X0046087Y0050584D01*
X0044770Y0050039D01*
X0043761Y0049030D01*
X0043216Y0047713D01*
X0043216Y0046287D01*
X0043761Y0044970D01*
X0043931Y0044800D01*
X0034669Y0044800D01*
X0034839Y0044970D01*
X0035384Y0046287D01*
X0035384Y0047713D01*
X0034839Y0049030D01*
X0033830Y0050039D01*
X0032513Y0050584D01*
X0032176Y0050584D01*
X0028850Y0053910D01*
X0028550Y0054255D01*
X0028459Y0054301D01*
X0028386Y0054374D01*
X0027963Y0054549D01*
X0020058Y0058502D01*
X0019839Y0059030D01*
X0018830Y0060039D01*
X0017513Y0060584D01*
X0016087Y0060584D01*
X0014770Y0060039D01*
X0013761Y0059030D01*
X0013216Y0057713D01*
X0013216Y0056287D01*
X0013761Y0054970D01*
X0014770Y0053961D01*
X0016087Y0053416D01*
X0017513Y0053416D01*
X0017619Y0053460D01*
X0025141Y0049699D01*
X0028216Y0046624D01*
X0028216Y0046287D01*
X0028507Y0045584D01*
X0027703Y0045584D01*
X0026385Y0045039D01*
X0025377Y0044030D01*
X0024831Y0042713D01*
X0024831Y0041287D01*
X0025377Y0039970D01*
X0026385Y0038961D01*
X0027703Y0038416D01*
X0029129Y0038416D01*
X0030446Y0038961D01*
X0030685Y0039200D01*
X0048931Y0039200D01*
X0048761Y0039030D01*
X0048216Y0037713D01*
X0048216Y0036287D01*
X0048761Y0034970D01*
X0049770Y0033961D01*
X0051087Y0033416D01*
X0051424Y0033416D01*
X0055214Y0029626D01*
X0056243Y0029200D01*
X0063095Y0029200D01*
X0064895Y0027400D01*
X0066800Y0025978D02*
X0066800Y0025978D01*
X0066800Y0024379D02*
X0066800Y0024379D01*
X0066800Y0022781D02*
X0066800Y0022781D01*
X0066800Y0021182D02*
X0066800Y0021182D01*
X0066800Y0019584D02*
X0066800Y0019584D01*
X0066800Y0017985D02*
X0066800Y0017985D01*
X0069008Y0017985D02*
X0076872Y0017985D01*
X0076594Y0018100D02*
X0078285Y0017400D01*
X0085315Y0017400D01*
X0087006Y0018100D01*
X0088300Y0019394D01*
X0088650Y0020239D01*
X0088761Y0019970D01*
X0089770Y0018961D01*
X0091087Y0018416D01*
X0091424Y0018416D01*
X0095214Y0014626D01*
X0096243Y0014200D01*
X0141790Y0014200D01*
X0141968Y0013771D01*
X0143571Y0012168D01*
X0145666Y0011300D01*
X0147934Y0011300D01*
X0150029Y0012168D01*
X0151632Y0013771D01*
X0152500Y0015866D01*
X0152500Y0018134D01*
X0151632Y0020229D01*
X0150029Y0021832D01*
X0147934Y0022700D01*
X0145666Y0022700D01*
X0143571Y0021832D01*
X0141968Y0020229D01*
X0141790Y0019800D01*
X0118468Y0019800D01*
X0119000Y0021085D01*
X0119000Y0022915D01*
X0118300Y0024606D01*
X0117006Y0025900D01*
X0115315Y0026600D01*
X0108285Y0026600D01*
X0106594Y0025900D01*
X0105300Y0024606D01*
X0104600Y0022915D01*
X0104600Y0021085D01*
X0105132Y0019800D01*
X0097960Y0019800D01*
X0095384Y0022376D01*
X0095384Y0022713D01*
X0094839Y0024030D01*
X0093830Y0025039D01*
X0092513Y0025584D01*
X0091087Y0025584D01*
X0089770Y0025039D01*
X0088761Y0024030D01*
X0088650Y0023761D01*
X0088300Y0024606D01*
X0087006Y0025900D01*
X0085315Y0026600D01*
X0078285Y0026600D01*
X0076594Y0025900D01*
X0075300Y0024606D01*
X0074600Y0022915D01*
X0074600Y0021085D01*
X0075300Y0019394D01*
X0076594Y0018100D01*
X0075222Y0019584D02*
X0070606Y0019584D01*
X0071200Y0021182D02*
X0074600Y0021182D01*
X0074600Y0022781D02*
X0071200Y0022781D01*
X0070643Y0024379D02*
X0075206Y0024379D01*
X0076783Y0025978D02*
X0069045Y0025978D01*
X0068882Y0027576D02*
X0077860Y0027576D01*
X0075520Y0029175D02*
X0070480Y0029175D01*
X0071400Y0030773D02*
X0074729Y0030773D01*
X0074600Y0032372D02*
X0071400Y0032372D01*
X0071335Y0033970D02*
X0075037Y0033970D01*
X0076263Y0035569D02*
X0069737Y0035569D01*
X0066800Y0032000D02*
X0056800Y0032000D01*
X0051800Y0037000D01*
X0048513Y0035569D02*
X0003800Y0035569D01*
X0003800Y0037167D02*
X0048216Y0037167D01*
X0048652Y0038766D02*
X0029974Y0038766D01*
X0026858Y0038766D02*
X0003800Y0038766D01*
X0003800Y0040364D02*
X0025214Y0040364D01*
X0024831Y0041963D02*
X0003800Y0041963D01*
X0003800Y0043561D02*
X0025183Y0043561D01*
X0026678Y0045160D02*
X0003800Y0045160D01*
X0003800Y0046758D02*
X0028082Y0046758D01*
X0026483Y0048357D02*
X0003800Y0048357D01*
X0003800Y0049955D02*
X0024628Y0049955D01*
X0026800Y0052000D02*
X0031800Y0047000D01*
X0033914Y0049955D02*
X0044686Y0049955D01*
X0043482Y0048357D02*
X0035118Y0048357D01*
X0035384Y0046758D02*
X0043216Y0046758D01*
X0043683Y0045160D02*
X0034917Y0045160D01*
X0028416Y0042000D02*
X0081800Y0042000D01*
X0103260Y0042000D01*
X0107460Y0037800D01*
X0131214Y0037800D01*
X0136214Y0032800D01*
X0151000Y0032800D01*
X0160550Y0023250D01*
X0175550Y0023250D01*
X0181800Y0017000D01*
X0186400Y0016387D02*
X0187200Y0016387D01*
X0187200Y0015095D02*
X0189895Y0012400D01*
X0193705Y0012400D01*
X0196400Y0015095D01*
X0196400Y0018905D01*
X0193705Y0021600D01*
X0189895Y0021600D01*
X0187200Y0018905D01*
X0187200Y0015095D01*
X0187507Y0014788D02*
X0186093Y0014788D01*
X0184495Y0013190D02*
X0189105Y0013190D01*
X0187200Y0017985D02*
X0186400Y0017985D01*
X0185722Y0019584D02*
X0187878Y0019584D01*
X0189477Y0021182D02*
X0184123Y0021182D01*
X0179979Y0022781D02*
X0196650Y0022781D01*
X0196650Y0024379D02*
X0178381Y0024379D01*
X0176282Y0025978D02*
X0196650Y0025978D01*
X0196650Y0027576D02*
X0160184Y0027576D01*
X0158585Y0029175D02*
X0196650Y0029175D01*
X0196650Y0030773D02*
X0156987Y0030773D01*
X0155388Y0032372D02*
X0196650Y0032372D01*
X0196650Y0033970D02*
X0195276Y0033970D01*
X0196400Y0035095D02*
X0193705Y0032400D01*
X0189895Y0032400D01*
X0187200Y0035095D01*
X0187200Y0038905D01*
X0189895Y0041600D01*
X0193705Y0041600D01*
X0196400Y0038905D01*
X0196400Y0035095D01*
X0196400Y0035569D02*
X0196650Y0035569D01*
X0196650Y0037167D02*
X0196400Y0037167D01*
X0196400Y0038766D02*
X0196650Y0038766D01*
X0196650Y0040364D02*
X0194941Y0040364D01*
X0196650Y0041963D02*
X0145723Y0041963D01*
X0147321Y0043561D02*
X0196650Y0043561D01*
X0196650Y0045160D02*
X0148920Y0045160D01*
X0150518Y0046758D02*
X0196650Y0046758D01*
X0196650Y0048357D02*
X0152117Y0048357D01*
X0151800Y0052000D02*
X0136800Y0037000D01*
X0135556Y0040364D02*
X0132340Y0040364D01*
X0132864Y0043561D02*
X0139402Y0043561D01*
X0141000Y0045160D02*
X0134917Y0045160D01*
X0135384Y0046758D02*
X0142599Y0046758D01*
X0144197Y0048357D02*
X0135609Y0048357D01*
X0136408Y0049955D02*
X0145796Y0049955D01*
X0147394Y0051554D02*
X0137207Y0051554D01*
X0138007Y0053152D02*
X0148993Y0053152D01*
X0149426Y0053586D02*
X0149426Y0053586D01*
X0151800Y0052000D02*
X0181800Y0052000D01*
X0185202Y0053152D02*
X0196650Y0053152D01*
X0196650Y0051554D02*
X0185384Y0051554D01*
X0184824Y0049955D02*
X0196650Y0049955D01*
X0196650Y0054751D02*
X0184118Y0054751D01*
X0179605Y0056349D02*
X0196650Y0056349D01*
X0196650Y0057948D02*
X0180404Y0057948D01*
X0181204Y0059546D02*
X0196650Y0059546D01*
X0196650Y0061145D02*
X0182003Y0061145D01*
X0182802Y0062743D02*
X0190302Y0062743D01*
X0190217Y0062805D02*
X0190917Y0062296D01*
X0191689Y0061903D01*
X0192512Y0061635D01*
X0193367Y0061500D01*
X0193600Y0061500D01*
X0193600Y0066800D01*
X0188300Y0066800D01*
X0188300Y0066567D01*
X0188435Y0065712D01*
X0188703Y0064889D01*
X0189096Y0064117D01*
X0189605Y0063417D01*
X0190217Y0062805D01*
X0188982Y0064342D02*
X0184211Y0064342D01*
X0185241Y0065940D02*
X0188399Y0065940D01*
X0188317Y0067539D02*
X0185384Y0067539D01*
X0184731Y0069137D02*
X0188716Y0069137D01*
X0189758Y0070736D02*
X0177984Y0070736D01*
X0177984Y0072334D02*
X0190404Y0072334D01*
X0188901Y0073933D02*
X0177984Y0073933D01*
X0177984Y0075532D02*
X0188239Y0075532D01*
X0188100Y0077130D02*
X0177984Y0077130D01*
X0179488Y0078729D02*
X0188346Y0078729D01*
X0189066Y0080327D02*
X0181087Y0080327D01*
X0182685Y0081926D02*
X0190797Y0081926D01*
X0189215Y0083524D02*
X0184284Y0083524D01*
X0185882Y0085123D02*
X0188408Y0085123D01*
X0188100Y0086721D02*
X0187481Y0086721D01*
X0181800Y0092000D02*
X0176800Y0087000D01*
X0174649Y0089918D02*
X0118517Y0089918D01*
X0118300Y0089394D02*
X0119000Y0091085D01*
X0119000Y0092915D01*
X0118319Y0094559D01*
X0127960Y0104200D01*
X0164531Y0104200D01*
X0164770Y0103961D01*
X0166087Y0103416D01*
X0167513Y0103416D01*
X0168830Y0103961D01*
X0169839Y0104970D01*
X0170384Y0106287D01*
X0170384Y0107713D01*
X0169839Y0109030D01*
X0168830Y0110039D01*
X0167513Y0110584D01*
X0166087Y0110584D01*
X0164770Y0110039D01*
X0164531Y0109800D01*
X0126243Y0109800D01*
X0125214Y0109374D01*
X0118928Y0103088D01*
X0118300Y0104606D01*
X0117006Y0105900D01*
X0115315Y0106600D01*
X0108285Y0106600D01*
X0106594Y0105900D01*
X0105300Y0104606D01*
X0104600Y0102915D01*
X0104600Y0101085D01*
X0105300Y0099394D01*
X0106594Y0098100D01*
X0108285Y0097400D01*
X0113240Y0097400D01*
X0112440Y0096600D01*
X0108285Y0096600D01*
X0106594Y0095900D01*
X0105300Y0094606D01*
X0104600Y0092915D01*
X0104600Y0091085D01*
X0105300Y0089394D01*
X0106594Y0088100D01*
X0108285Y0087400D01*
X0115315Y0087400D01*
X0117006Y0088100D01*
X0118300Y0089394D01*
X0117225Y0088320D02*
X0173467Y0088320D01*
X0173216Y0086721D02*
X0040384Y0086721D01*
X0040133Y0088320D02*
X0058975Y0088320D01*
X0059895Y0087400D02*
X0063705Y0087400D01*
X0066400Y0090095D01*
X0066400Y0093905D01*
X0063705Y0096600D01*
X0059895Y0096600D01*
X0057200Y0093905D01*
X0057200Y0090095D01*
X0059895Y0087400D01*
X0057376Y0089918D02*
X0038951Y0089918D01*
X0036800Y0087000D02*
X0026800Y0097000D01*
X0006800Y0097000D01*
X0010753Y0101108D02*
X0068732Y0101108D01*
X0067134Y0102706D02*
X0010567Y0102706D01*
X0006800Y0107000D02*
X0066800Y0107000D01*
X0081800Y0092000D01*
X0086010Y0096312D02*
X0107590Y0096312D01*
X0107052Y0097911D02*
X0086548Y0097911D01*
X0088347Y0099509D02*
X0105253Y0099509D01*
X0104600Y0101108D02*
X0089000Y0101108D01*
X0089000Y0102706D02*
X0104600Y0102706D01*
X0105176Y0104305D02*
X0088424Y0104305D01*
X0086997Y0105903D02*
X0106603Y0105903D01*
X0108039Y0107502D02*
X0085561Y0107502D01*
X0088006Y0109100D02*
X0105594Y0109100D01*
X0105300Y0109394D02*
X0106594Y0108100D01*
X0108285Y0107400D01*
X0115315Y0107400D01*
X0117006Y0108100D01*
X0118300Y0109394D01*
X0119000Y0111085D01*
X0119000Y0112915D01*
X0118300Y0114606D01*
X0117006Y0115900D01*
X0115315Y0116600D01*
X0108285Y0116600D01*
X0106594Y0115900D01*
X0105300Y0114606D01*
X0104600Y0112915D01*
X0104600Y0111085D01*
X0105300Y0109394D01*
X0104760Y0110699D02*
X0088840Y0110699D01*
X0089000Y0112297D02*
X0104600Y0112297D01*
X0105006Y0113896D02*
X0088594Y0113896D01*
X0087411Y0115494D02*
X0106189Y0115494D01*
X0106003Y0118691D02*
X0087597Y0118691D01*
X0088671Y0120290D02*
X0104929Y0120290D01*
X0104600Y0121888D02*
X0089000Y0121888D01*
X0088763Y0123487D02*
X0104837Y0123487D01*
X0105780Y0125085D02*
X0087820Y0125085D01*
X0087188Y0128282D02*
X0106412Y0128282D01*
X0105099Y0129881D02*
X0088501Y0129881D01*
X0089000Y0131479D02*
X0104600Y0131479D01*
X0104667Y0133078D02*
X0088933Y0133078D01*
X0088229Y0134676D02*
X0105371Y0134676D01*
X0107500Y0136275D02*
X0086100Y0136275D01*
X0086458Y0137873D02*
X0107661Y0137873D01*
X0107511Y0137922D02*
X0108170Y0137708D01*
X0108854Y0137600D01*
X0111800Y0137600D01*
X0114746Y0137600D01*
X0115430Y0137708D01*
X0116089Y0137922D01*
X0116706Y0138237D01*
X0117266Y0138644D01*
X0117756Y0139134D01*
X0118163Y0139694D01*
X0118478Y0140311D01*
X0118692Y0140970D01*
X0118800Y0141654D01*
X0118800Y0142000D01*
X0118800Y0142346D01*
X0118692Y0143030D01*
X0118478Y0143689D01*
X0118163Y0144306D01*
X0117756Y0144866D01*
X0117266Y0145356D01*
X0116706Y0145763D01*
X0116089Y0146078D01*
X0115430Y0146292D01*
X0114746Y0146400D01*
X0111800Y0146400D01*
X0111800Y0142000D01*
X0111800Y0142000D01*
X0118800Y0142000D01*
X0111800Y0142000D01*
X0111800Y0142000D01*
X0111800Y0137600D01*
X0111800Y0142000D01*
X0111800Y0142000D01*
X0111800Y0142000D01*
X0104800Y0142000D01*
X0104800Y0142346D01*
X0104908Y0143030D01*
X0105122Y0143689D01*
X0105437Y0144306D01*
X0105844Y0144866D01*
X0106334Y0145356D01*
X0106894Y0145763D01*
X0107511Y0146078D01*
X0108170Y0146292D01*
X0108854Y0146400D01*
X0111800Y0146400D01*
X0111800Y0142000D01*
X0104800Y0142000D01*
X0104800Y0141654D01*
X0104908Y0140970D01*
X0105122Y0140311D01*
X0105437Y0139694D01*
X0105844Y0139134D01*
X0106334Y0138644D01*
X0106894Y0138237D01*
X0107511Y0137922D01*
X0105598Y0139472D02*
X0088332Y0139472D01*
X0088994Y0141070D02*
X0104892Y0141070D01*
X0104851Y0142669D02*
X0089000Y0142669D01*
X0088440Y0144268D02*
X0094464Y0144268D01*
X0094770Y0143961D02*
X0096087Y0143416D01*
X0097513Y0143416D01*
X0098830Y0143961D01*
X0099839Y0144970D01*
X0100384Y0146287D01*
X0100384Y0146624D01*
X0104672Y0150912D01*
X0105300Y0149394D01*
X0106594Y0148100D01*
X0108285Y0147400D01*
X0115315Y0147400D01*
X0117006Y0148100D01*
X0118105Y0149200D01*
X0128095Y0149200D01*
X0129895Y0147400D01*
X0133705Y0147400D01*
X0136400Y0150095D01*
X0136400Y0153905D01*
X0136105Y0154200D01*
X0147357Y0154200D01*
X0148386Y0154626D01*
X0149174Y0155414D01*
X0152176Y0158416D01*
X0152513Y0158416D01*
X0153830Y0158961D01*
X0154839Y0159970D01*
X0155384Y0161287D01*
X0155384Y0162713D01*
X0154839Y0164030D01*
X0153830Y0165039D01*
X0152513Y0165584D01*
X0151087Y0165584D01*
X0149770Y0165039D01*
X0148761Y0164030D01*
X0148216Y0162713D01*
X0148216Y0162376D01*
X0145640Y0159800D01*
X0114669Y0159800D01*
X0114839Y0159970D01*
X0115384Y0161287D01*
X0115384Y0162713D01*
X0114839Y0164030D01*
X0113830Y0165039D01*
X0112513Y0165584D01*
X0112176Y0165584D01*
X0108386Y0169374D01*
X0107357Y0169800D01*
X0087960Y0169800D01*
X0085384Y0172376D01*
X0085384Y0172713D01*
X0084839Y0174030D01*
X0083830Y0175039D01*
X0082513Y0175584D01*
X0081087Y0175584D01*
X0079770Y0175039D01*
X0078761Y0174030D01*
X0078216Y0172713D01*
X0078216Y0171287D01*
X0078761Y0169970D01*
X0079770Y0168961D01*
X0081087Y0168416D01*
X0081424Y0168416D01*
X0084426Y0165414D01*
X0085214Y0164626D01*
X0086243Y0164200D01*
X0105640Y0164200D01*
X0108216Y0161624D01*
X0108216Y0161287D01*
X0108761Y0159970D01*
X0108931Y0159800D01*
X0106243Y0159800D01*
X0105214Y0159374D01*
X0096424Y0150584D01*
X0096087Y0150584D01*
X0094770Y0150039D01*
X0093761Y0149030D01*
X0093216Y0147713D01*
X0093216Y0146287D01*
X0093761Y0144970D01*
X0094770Y0143961D01*
X0093390Y0145866D02*
X0087039Y0145866D01*
X0085471Y0147465D02*
X0093216Y0147465D01*
X0093794Y0149063D02*
X0087968Y0149063D01*
X0088825Y0150662D02*
X0096502Y0150662D01*
X0098100Y0152260D02*
X0089000Y0152260D01*
X0088609Y0153859D02*
X0099699Y0153859D01*
X0101297Y0155457D02*
X0087448Y0155457D01*
X0081800Y0152000D02*
X0016800Y0152000D01*
X0013274Y0147465D02*
X0003800Y0147465D01*
X0003800Y0149063D02*
X0011847Y0149063D01*
X0011185Y0150662D02*
X0003800Y0150662D01*
X0003800Y0152260D02*
X0011100Y0152260D01*
X0011400Y0153859D02*
X0003800Y0153859D01*
X0003800Y0155457D02*
X0012196Y0155457D01*
X0013842Y0157056D02*
X0003800Y0157056D01*
X0003800Y0158654D02*
X0012085Y0158654D01*
X0011354Y0160253D02*
X0003800Y0160253D01*
X0003800Y0161851D02*
X0011100Y0161851D01*
X0011231Y0163450D02*
X0003800Y0163450D01*
X0003800Y0165048D02*
X0011893Y0165048D01*
X0013386Y0166647D02*
X0003800Y0166647D01*
X0003800Y0168245D02*
X0012777Y0168245D01*
X0011726Y0169844D02*
X0003800Y0169844D01*
X0003800Y0171442D02*
X0011320Y0171442D01*
X0011396Y0173041D02*
X0003800Y0173041D01*
X0003800Y0174639D02*
X0011972Y0174639D01*
X0013276Y0176238D02*
X0003800Y0176238D01*
X0003800Y0177836D02*
X0012903Y0177836D01*
X0011693Y0179435D02*
X0003800Y0179435D01*
X0003800Y0181033D02*
X0011100Y0181033D01*
X0011100Y0182632D02*
X0003800Y0182632D01*
X0003800Y0184230D02*
X0011554Y0184230D01*
X0012568Y0185829D02*
X0003800Y0185829D01*
X0003800Y0187427D02*
X0013312Y0187427D01*
X0011862Y0189026D02*
X0003800Y0189026D01*
X0003800Y0190624D02*
X0011200Y0190624D01*
X0011100Y0192223D02*
X0003800Y0192223D01*
X0003800Y0193821D02*
X0011385Y0193821D01*
X0012159Y0195420D02*
X0003800Y0195420D01*
X0016800Y0192000D02*
X0026800Y0192000D01*
X0031800Y0187000D01*
X0028406Y0185829D02*
X0021032Y0185829D01*
X0020288Y0187427D02*
X0027413Y0187427D01*
X0025814Y0189026D02*
X0021738Y0189026D01*
X0023529Y0184230D02*
X0029501Y0184230D01*
X0026727Y0181033D02*
X0047400Y0181033D01*
X0047400Y0180177D02*
X0049977Y0177600D01*
X0051800Y0177600D01*
X0053623Y0177600D01*
X0056200Y0180177D01*
X0056200Y0182000D01*
X0056200Y0183823D01*
X0053623Y0186400D01*
X0051800Y0186400D01*
X0051800Y0182000D01*
X0051800Y0182000D01*
X0056200Y0182000D01*
X0051800Y0182000D01*
X0051800Y0182000D01*
X0051800Y0182000D01*
X0047400Y0182000D01*
X0047400Y0183823D01*
X0049977Y0186400D01*
X0051800Y0186400D01*
X0051800Y0182000D01*
X0051800Y0177600D01*
X0051800Y0182000D01*
X0051800Y0182000D01*
X0047400Y0182000D01*
X0047400Y0180177D01*
X0048143Y0179435D02*
X0029434Y0179435D01*
X0030333Y0177836D02*
X0049741Y0177836D01*
X0051800Y0177836D02*
X0051800Y0177836D01*
X0051800Y0179435D02*
X0051800Y0179435D01*
X0051800Y0181033D02*
X0051800Y0181033D01*
X0051800Y0182632D02*
X0051800Y0182632D01*
X0051800Y0184230D02*
X0051800Y0184230D01*
X0051800Y0185829D02*
X0051800Y0185829D01*
X0054194Y0185829D02*
X0067400Y0185829D01*
X0067400Y0185177D02*
X0067400Y0187000D01*
X0071800Y0187000D01*
X0071800Y0187000D01*
X0071800Y0187000D01*
X0071800Y0191400D01*
X0069977Y0191400D01*
X0067400Y0188823D01*
X0067400Y0187000D01*
X0071800Y0187000D01*
X0071800Y0182600D01*
X0069977Y0182600D01*
X0067400Y0185177D01*
X0068347Y0184230D02*
X0064014Y0184230D01*
X0062086Y0184230D02*
X0055792Y0184230D01*
X0056200Y0182632D02*
X0059950Y0182632D01*
X0059466Y0181033D02*
X0056200Y0181033D01*
X0055457Y0179435D02*
X0059715Y0179435D01*
X0060895Y0177836D02*
X0053859Y0177836D01*
X0047400Y0182632D02*
X0025128Y0182632D01*
X0021800Y0182000D02*
X0026800Y0177000D01*
X0029508Y0174639D02*
X0079370Y0174639D01*
X0078352Y0173041D02*
X0022204Y0173041D01*
X0022280Y0171442D02*
X0078216Y0171442D01*
X0078887Y0169844D02*
X0063937Y0169844D01*
X0065745Y0168245D02*
X0081595Y0168245D01*
X0083194Y0166647D02*
X0066400Y0166647D01*
X0066400Y0165048D02*
X0084792Y0165048D01*
X0086800Y0167000D02*
X0106800Y0167000D01*
X0111800Y0162000D01*
X0114956Y0160253D02*
X0146093Y0160253D01*
X0147691Y0161851D02*
X0115384Y0161851D01*
X0115079Y0163450D02*
X0148521Y0163450D01*
X0149793Y0165048D02*
X0113807Y0165048D01*
X0111113Y0166647D02*
X0159554Y0166647D01*
X0159130Y0166822D02*
X0160811Y0166126D01*
X0162631Y0166126D01*
X0164313Y0166822D01*
X0165600Y0168109D01*
X0166083Y0169276D01*
X0167356Y0169276D01*
X0169037Y0169972D01*
X0170324Y0171259D01*
X0171020Y0172940D01*
X0171020Y0174760D01*
X0170324Y0176442D01*
X0169766Y0177000D01*
X0170324Y0177558D01*
X0171020Y0179240D01*
X0171020Y0181060D01*
X0170324Y0182741D01*
X0169037Y0184028D01*
X0167356Y0184724D01*
X0165858Y0184724D01*
X0165776Y0184979D01*
X0165463Y0185592D01*
X0165058Y0186149D01*
X0164571Y0186636D01*
X0164014Y0187041D01*
X0163401Y0187353D01*
X0162746Y0187566D01*
X0162066Y0187674D01*
X0161721Y0187674D01*
X0161377Y0187674D01*
X0160697Y0187566D01*
X0160042Y0187353D01*
X0159428Y0187041D01*
X0158871Y0186636D01*
X0158384Y0186149D01*
X0157980Y0185592D01*
X0157667Y0184979D01*
X0157454Y0184324D01*
X0157346Y0183644D01*
X0157346Y0183299D01*
X0157346Y0182955D01*
X0157454Y0182275D01*
X0157667Y0181620D01*
X0157980Y0181006D01*
X0158384Y0180449D01*
X0158543Y0180291D01*
X0157843Y0179591D01*
X0157146Y0177910D01*
X0157146Y0176090D01*
X0157843Y0174409D01*
X0158401Y0173850D01*
X0158052Y0173501D01*
X0152718Y0173501D01*
X0153830Y0173961D01*
X0154839Y0174970D01*
X0155384Y0176287D01*
X0155384Y0177713D01*
X0154839Y0179030D01*
X0153830Y0180039D01*
X0152513Y0180584D01*
X0152339Y0180584D01*
X0152517Y0181012D01*
X0152517Y0182988D01*
X0151760Y0184814D01*
X0150362Y0186212D01*
X0148536Y0186968D01*
X0146560Y0186968D01*
X0144734Y0186212D01*
X0143336Y0184814D01*
X0143334Y0184810D01*
X0142265Y0185878D01*
X0141610Y0186150D01*
X0139174Y0188586D01*
X0138386Y0189374D01*
X0137357Y0189800D01*
X0106243Y0189800D01*
X0105525Y0189503D01*
X0106200Y0190177D01*
X0106200Y0192000D01*
X0106200Y0193823D01*
X0103623Y0196400D01*
X0101800Y0196400D01*
X0101800Y0192000D01*
X0101800Y0192000D01*
X0106200Y0192000D01*
X0101800Y0192000D01*
X0101800Y0192000D01*
X0101800Y0187600D01*
X0103440Y0187600D01*
X0102440Y0186600D01*
X0099895Y0186600D01*
X0097200Y0183905D01*
X0097200Y0180584D01*
X0096087Y0180584D01*
X0094770Y0180039D01*
X0093761Y0179030D01*
X0093216Y0177713D01*
X0093216Y0176287D01*
X0093761Y0174970D01*
X0094770Y0173961D01*
X0096087Y0173416D01*
X0097513Y0173416D01*
X0098830Y0173961D01*
X0099069Y0174200D01*
X0130181Y0174200D01*
X0130011Y0174030D01*
X0129466Y0172713D01*
X0129466Y0171287D01*
X0130011Y0169970D01*
X0131020Y0168961D01*
X0132337Y0168416D01*
X0132674Y0168416D01*
X0132763Y0168327D01*
X0133792Y0167901D01*
X0158052Y0167901D01*
X0159130Y0166822D01*
X0161721Y0170701D02*
X0134349Y0170701D01*
X0133050Y0172000D01*
X0129602Y0173041D02*
X0085248Y0173041D01*
X0084230Y0174639D02*
X0094092Y0174639D01*
X0093236Y0176238D02*
X0030364Y0176238D01*
X0024092Y0174639D02*
X0021628Y0174639D01*
X0020324Y0176238D02*
X0023236Y0176238D01*
X0022004Y0177836D02*
X0020697Y0177836D01*
X0021800Y0182000D02*
X0016800Y0182000D01*
X0021874Y0169844D02*
X0039671Y0169844D01*
X0041800Y0169844D02*
X0041800Y0169844D01*
X0041800Y0168245D02*
X0041800Y0168245D01*
X0041800Y0166647D02*
X0041800Y0166647D01*
X0043929Y0169844D02*
X0059663Y0169844D01*
X0057855Y0168245D02*
X0045527Y0168245D01*
X0046200Y0166647D02*
X0057200Y0166647D01*
X0055888Y0165048D02*
X0046200Y0165048D01*
X0045722Y0163450D02*
X0054290Y0163450D01*
X0054300Y0159500D02*
X0019300Y0159500D01*
X0016800Y0162000D01*
X0020214Y0166647D02*
X0037400Y0166647D01*
X0037400Y0165048D02*
X0021707Y0165048D01*
X0022369Y0163450D02*
X0037878Y0163450D01*
X0038073Y0168245D02*
X0020823Y0168245D01*
X0021404Y0155457D02*
X0076152Y0155457D01*
X0075632Y0149063D02*
X0021753Y0149063D01*
X0020326Y0147465D02*
X0078129Y0147465D01*
X0076561Y0145866D02*
X0003800Y0145866D01*
X0003800Y0144268D02*
X0010108Y0144268D01*
X0008509Y0142669D02*
X0008009Y0142669D01*
X0005591Y0142669D02*
X0003800Y0142669D01*
X0006800Y0137000D02*
X0011800Y0142000D01*
X0081800Y0142000D01*
X0077142Y0137873D02*
X0075318Y0137873D01*
X0075379Y0136275D02*
X0077500Y0136275D01*
X0081800Y0132000D02*
X0011800Y0132000D01*
X0006800Y0127000D01*
X0006800Y0117000D02*
X0066800Y0117000D01*
X0081800Y0102000D01*
X0088192Y0094714D02*
X0105408Y0094714D01*
X0104683Y0093115D02*
X0088917Y0093115D01*
X0089000Y0091517D02*
X0104600Y0091517D01*
X0105083Y0089918D02*
X0088517Y0089918D01*
X0087225Y0088320D02*
X0106375Y0088320D01*
X0106594Y0085900D02*
X0105300Y0084606D01*
X0104600Y0082915D01*
X0104600Y0081085D01*
X0105300Y0079394D01*
X0106594Y0078100D01*
X0108285Y0077400D01*
X0115315Y0077400D01*
X0117006Y0078100D01*
X0118300Y0079394D01*
X0119000Y0081085D01*
X0119000Y0082915D01*
X0118300Y0084606D01*
X0117006Y0085900D01*
X0115315Y0086600D01*
X0108285Y0086600D01*
X0106594Y0085900D01*
X0105817Y0085123D02*
X0087500Y0085123D01*
X0087266Y0085356D02*
X0086706Y0085763D01*
X0086089Y0086078D01*
X0085430Y0086292D01*
X0084746Y0086400D01*
X0081800Y0086400D01*
X0081800Y0082000D01*
X0081800Y0082000D01*
X0088800Y0082000D01*
X0088800Y0082346D01*
X0088692Y0083030D01*
X0088478Y0083689D01*
X0088163Y0084306D01*
X0087756Y0084866D01*
X0087266Y0085356D01*
X0088531Y0083524D02*
X0104852Y0083524D01*
X0104600Y0081926D02*
X0088800Y0081926D01*
X0088800Y0082000D02*
X0081800Y0082000D01*
X0081800Y0082000D01*
X0081800Y0077600D01*
X0084746Y0077600D01*
X0085430Y0077708D01*
X0086089Y0077922D01*
X0086706Y0078237D01*
X0087266Y0078644D01*
X0087756Y0079134D01*
X0088163Y0079694D01*
X0088478Y0080311D01*
X0088692Y0080970D01*
X0088800Y0081654D01*
X0088800Y0082000D01*
X0088483Y0080327D02*
X0104914Y0080327D01*
X0105966Y0078729D02*
X0087351Y0078729D01*
X0087374Y0075532D02*
X0106226Y0075532D01*
X0105022Y0073933D02*
X0088578Y0073933D01*
X0089000Y0072334D02*
X0104600Y0072334D01*
X0104745Y0070736D02*
X0088855Y0070736D01*
X0088043Y0069137D02*
X0105557Y0069137D01*
X0107949Y0067539D02*
X0085650Y0067539D01*
X0086907Y0065940D02*
X0107242Y0065940D01*
X0107511Y0066078D02*
X0106894Y0065763D01*
X0106334Y0065356D01*
X0105844Y0064866D01*
X0105437Y0064306D01*
X0105122Y0063689D01*
X0104908Y0063030D01*
X0104800Y0062346D01*
X0104800Y0062000D01*
X0111800Y0062000D01*
X0111800Y0062000D01*
X0111800Y0062000D01*
X0111800Y0066400D01*
X0108854Y0066400D01*
X0108170Y0066292D01*
X0107511Y0066078D01*
X0105463Y0064342D02*
X0088409Y0064342D01*
X0089000Y0062743D02*
X0104863Y0062743D01*
X0104800Y0062000D02*
X0104800Y0061654D01*
X0104908Y0060970D01*
X0105122Y0060311D01*
X0105437Y0059694D01*
X0105844Y0059134D01*
X0106334Y0058644D01*
X0106894Y0058237D01*
X0107511Y0057922D01*
X0108170Y0057708D01*
X0108854Y0057600D01*
X0111800Y0057600D01*
X0111800Y0062000D01*
X0104800Y0062000D01*
X0104881Y0061145D02*
X0089000Y0061145D01*
X0088363Y0059546D02*
X0105544Y0059546D01*
X0107461Y0057948D02*
X0086638Y0057948D01*
X0085920Y0056349D02*
X0107680Y0056349D01*
X0105445Y0054751D02*
X0088154Y0054751D01*
X0088902Y0053152D02*
X0104698Y0053152D01*
X0104600Y0051554D02*
X0089000Y0051554D01*
X0088532Y0049955D02*
X0105068Y0049955D01*
X0106338Y0048357D02*
X0087262Y0048357D01*
X0087746Y0045160D02*
X0105854Y0045160D01*
X0102535Y0038766D02*
X0099948Y0038766D01*
X0100384Y0037167D02*
X0104133Y0037167D01*
X0105732Y0035569D02*
X0100087Y0035569D01*
X0099863Y0033970D02*
X0105037Y0033970D01*
X0104600Y0032372D02*
X0100384Y0032372D01*
X0100171Y0030773D02*
X0104729Y0030773D01*
X0105520Y0029175D02*
X0099044Y0029175D01*
X0096800Y0032000D02*
X0081800Y0032000D01*
X0085740Y0027576D02*
X0107860Y0027576D01*
X0106783Y0025978D02*
X0086817Y0025978D01*
X0088394Y0024379D02*
X0089110Y0024379D01*
X0091800Y0022000D02*
X0096800Y0017000D01*
X0146800Y0017000D01*
X0150679Y0021182D02*
X0158658Y0021182D01*
X0157060Y0022781D02*
X0119000Y0022781D01*
X0119000Y0021182D02*
X0142921Y0021182D01*
X0142549Y0013190D02*
X0055768Y0013190D01*
X0056846Y0014788D02*
X0095052Y0014788D01*
X0093454Y0016387D02*
X0057271Y0016387D01*
X0057213Y0017985D02*
X0064592Y0017985D01*
X0062994Y0019584D02*
X0056656Y0019584D01*
X0052000Y0014788D02*
X0051600Y0014788D01*
X0051600Y0013190D02*
X0052000Y0013190D01*
X0052000Y0011591D02*
X0051600Y0011591D01*
X0050792Y0011591D02*
X0033637Y0011591D01*
X0032934Y0011300D02*
X0035029Y0012168D01*
X0036632Y0013771D01*
X0037500Y0015866D01*
X0037500Y0018134D01*
X0036632Y0020229D01*
X0035029Y0021832D01*
X0032934Y0022700D01*
X0030666Y0022700D01*
X0028571Y0021832D01*
X0026968Y0020229D01*
X0026100Y0018134D01*
X0026100Y0015866D01*
X0026968Y0013771D01*
X0028571Y0012168D01*
X0030666Y0011300D01*
X0032934Y0011300D01*
X0036051Y0013190D02*
X0047832Y0013190D01*
X0046754Y0014788D02*
X0037053Y0014788D01*
X0037500Y0016387D02*
X0046329Y0016387D01*
X0046387Y0017985D02*
X0037500Y0017985D01*
X0036899Y0019584D02*
X0046944Y0019584D01*
X0048204Y0021182D02*
X0035679Y0021182D01*
X0027921Y0021182D02*
X0019123Y0021182D01*
X0018705Y0021600D02*
X0014895Y0021600D01*
X0012200Y0018905D01*
X0012200Y0015095D01*
X0014895Y0012400D01*
X0018705Y0012400D01*
X0021400Y0015095D01*
X0021400Y0018905D01*
X0018705Y0021600D01*
X0019514Y0022781D02*
X0003800Y0022781D01*
X0003800Y0024379D02*
X0017915Y0024379D01*
X0017200Y0025978D02*
X0003800Y0025978D01*
X0003800Y0027576D02*
X0017200Y0027576D01*
X0017469Y0029175D02*
X0003800Y0029175D01*
X0003800Y0030773D02*
X0019068Y0030773D01*
X0024532Y0030773D02*
X0054067Y0030773D01*
X0052468Y0032372D02*
X0003800Y0032372D01*
X0003800Y0033970D02*
X0049761Y0033970D01*
X0055593Y0037167D02*
X0084831Y0037167D01*
X0088416Y0037000D02*
X0096800Y0037000D01*
X0094556Y0029175D02*
X0088080Y0029175D01*
X0094490Y0024379D02*
X0105206Y0024379D01*
X0104600Y0022781D02*
X0095356Y0022781D01*
X0096578Y0021182D02*
X0104600Y0021182D01*
X0103714Y0011591D02*
X0139886Y0011591D01*
X0138287Y0009993D02*
X0105313Y0009993D01*
X0106400Y0008394D02*
X0137200Y0008394D01*
X0137200Y0006796D02*
X0106400Y0006796D01*
X0106400Y0005197D02*
X0137200Y0005197D01*
X0143714Y0011591D02*
X0144963Y0011591D01*
X0145313Y0009993D02*
X0196650Y0009993D01*
X0196650Y0011591D02*
X0167808Y0011591D01*
X0168088Y0011635D02*
X0168911Y0011903D01*
X0169683Y0012296D01*
X0170383Y0012805D01*
X0170995Y0013417D01*
X0171504Y0014117D01*
X0171897Y0014889D01*
X0172165Y0015712D01*
X0172300Y0016567D01*
X0172300Y0016800D01*
X0167000Y0016800D01*
X0167000Y0011500D01*
X0167233Y0011500D01*
X0168088Y0011635D01*
X0167000Y0011591D02*
X0166600Y0011591D01*
X0166600Y0011500D02*
X0166600Y0016800D01*
X0161300Y0016800D01*
X0161300Y0016567D01*
X0161435Y0015712D01*
X0161703Y0014889D01*
X0162096Y0014117D01*
X0162605Y0013417D01*
X0163217Y0012805D01*
X0163917Y0012296D01*
X0164689Y0011903D01*
X0165512Y0011635D01*
X0166367Y0011500D01*
X0166600Y0011500D01*
X0165792Y0011591D02*
X0148637Y0011591D01*
X0151051Y0013190D02*
X0162832Y0013190D01*
X0161754Y0014788D02*
X0152053Y0014788D01*
X0152500Y0016387D02*
X0161329Y0016387D01*
X0161387Y0017985D02*
X0152500Y0017985D01*
X0151899Y0019584D02*
X0161944Y0019584D01*
X0166600Y0016387D02*
X0167000Y0016387D01*
X0167000Y0014788D02*
X0166600Y0014788D01*
X0166600Y0013190D02*
X0167000Y0013190D01*
X0170768Y0013190D02*
X0179105Y0013190D01*
X0177507Y0014788D02*
X0171846Y0014788D01*
X0172271Y0016387D02*
X0177200Y0016387D01*
X0176855Y0017985D02*
X0172213Y0017985D01*
X0171656Y0019584D02*
X0175257Y0019584D01*
X0188324Y0033970D02*
X0154993Y0033970D01*
X0156200Y0035569D02*
X0187200Y0035569D01*
X0187200Y0037167D02*
X0156200Y0037167D01*
X0156200Y0038766D02*
X0187200Y0038766D01*
X0188659Y0040364D02*
X0154658Y0040364D01*
X0151800Y0040364D02*
X0151800Y0040364D01*
X0151800Y0038766D02*
X0151800Y0038766D01*
X0151800Y0037167D02*
X0151800Y0037167D01*
X0148942Y0040364D02*
X0144124Y0040364D01*
X0142526Y0038766D02*
X0147400Y0038766D01*
X0147400Y0037167D02*
X0140927Y0037167D01*
X0137803Y0041963D02*
X0119000Y0041963D01*
X0118732Y0043561D02*
X0130736Y0043561D01*
X0128683Y0045160D02*
X0117746Y0045160D01*
X0117262Y0048357D02*
X0128482Y0048357D01*
X0128216Y0046758D02*
X0050518Y0046758D01*
X0049917Y0045160D02*
X0075854Y0045160D01*
X0075929Y0038766D02*
X0054948Y0038766D01*
X0057191Y0035569D02*
X0063863Y0035569D01*
X0063120Y0029175D02*
X0026131Y0029175D01*
X0026701Y0019584D02*
X0020722Y0019584D01*
X0021400Y0017985D02*
X0026100Y0017985D01*
X0026100Y0016387D02*
X0021400Y0016387D01*
X0021093Y0014788D02*
X0026547Y0014788D01*
X0027549Y0013190D02*
X0019495Y0013190D01*
X0014105Y0013190D02*
X0009495Y0013190D01*
X0011093Y0014788D02*
X0012507Y0014788D01*
X0012200Y0016387D02*
X0011400Y0016387D01*
X0011400Y0017985D02*
X0012200Y0017985D01*
X0012878Y0019584D02*
X0010722Y0019584D01*
X0009123Y0021182D02*
X0014477Y0021182D01*
X0004477Y0021182D02*
X0003800Y0021182D01*
X0003800Y0013190D02*
X0004105Y0013190D01*
X0003800Y0011591D02*
X0029963Y0011591D01*
X0052808Y0011591D02*
X0099886Y0011591D01*
X0098287Y0009993D02*
X0003800Y0009993D01*
X0003800Y0008394D02*
X0097200Y0008394D01*
X0097200Y0006796D02*
X0003800Y0006796D01*
X0003800Y0005197D02*
X0097200Y0005197D01*
X0091855Y0017985D02*
X0086728Y0017985D01*
X0088378Y0019584D02*
X0089147Y0019584D01*
X0111800Y0032000D02*
X0116800Y0032000D01*
X0121800Y0027000D01*
X0124248Y0024379D02*
X0155461Y0024379D01*
X0153863Y0025978D02*
X0125256Y0025978D01*
X0125384Y0027576D02*
X0152264Y0027576D01*
X0150666Y0029175D02*
X0124694Y0029175D01*
X0121987Y0030773D02*
X0134281Y0030773D01*
X0132682Y0032372D02*
X0120388Y0032372D01*
X0118790Y0033970D02*
X0131084Y0033970D01*
X0119352Y0024379D02*
X0118394Y0024379D01*
X0118344Y0025978D02*
X0116817Y0025978D01*
X0117264Y0027576D02*
X0115740Y0027576D01*
X0131800Y0047000D02*
X0136800Y0057000D01*
X0176800Y0057000D01*
X0181800Y0067000D01*
X0178216Y0067539D02*
X0177984Y0067539D01*
X0177984Y0069137D02*
X0178869Y0069137D01*
X0178140Y0065940D02*
X0177984Y0065940D01*
X0175184Y0065598D02*
X0175184Y0078384D01*
X0193800Y0097000D01*
X0189847Y0101108D02*
X0185310Y0101108D01*
X0185384Y0102706D02*
X0190033Y0102706D01*
X0188747Y0104305D02*
X0184564Y0104305D01*
X0181800Y0102000D02*
X0181800Y0092000D01*
X0184600Y0093115D02*
X0185955Y0093115D01*
X0184600Y0094714D02*
X0187554Y0094714D01*
X0188100Y0096312D02*
X0184600Y0096312D01*
X0184600Y0097911D02*
X0188100Y0097911D01*
X0188670Y0099509D02*
X0184600Y0099509D01*
X0179000Y0099509D02*
X0123269Y0099509D01*
X0121670Y0097911D02*
X0179000Y0097911D01*
X0179000Y0096312D02*
X0120072Y0096312D01*
X0118473Y0094714D02*
X0179000Y0094714D01*
X0178955Y0093115D02*
X0118917Y0093115D01*
X0119000Y0091517D02*
X0177357Y0091517D01*
X0173698Y0085123D02*
X0154900Y0085123D01*
X0153623Y0086400D02*
X0151800Y0086400D01*
X0151800Y0082000D01*
X0156200Y0082000D01*
X0156200Y0083823D01*
X0153623Y0086400D01*
X0151800Y0086400D02*
X0149977Y0086400D01*
X0147400Y0083823D01*
X0147400Y0082000D01*
X0151800Y0082000D01*
X0151800Y0082000D01*
X0151800Y0082000D01*
X0156200Y0082000D01*
X0156200Y0080177D01*
X0153623Y0077600D01*
X0151800Y0077600D01*
X0151800Y0082000D01*
X0151800Y0082000D01*
X0151800Y0082000D01*
X0151800Y0086400D01*
X0151800Y0085123D02*
X0151800Y0085123D01*
X0151800Y0083524D02*
X0151800Y0083524D01*
X0151800Y0082000D02*
X0147400Y0082000D01*
X0147400Y0080177D01*
X0149977Y0077600D01*
X0151800Y0077600D01*
X0151800Y0082000D01*
X0151800Y0081926D02*
X0151800Y0081926D01*
X0151800Y0080327D02*
X0151800Y0080327D01*
X0151800Y0078729D02*
X0151800Y0078729D01*
X0154751Y0078729D02*
X0172384Y0078729D01*
X0172384Y0077130D02*
X0067500Y0077130D01*
X0067361Y0075532D02*
X0076226Y0075532D01*
X0077511Y0077922D02*
X0078170Y0077708D01*
X0078854Y0077600D01*
X0081800Y0077600D01*
X0081800Y0082000D01*
X0081800Y0082000D01*
X0081800Y0082000D01*
X0074800Y0082000D01*
X0074800Y0082346D01*
X0074908Y0083030D01*
X0075122Y0083689D01*
X0075437Y0084306D01*
X0075844Y0084866D01*
X0076334Y0085356D01*
X0076894Y0085763D01*
X0077511Y0086078D01*
X0078170Y0086292D01*
X0078854Y0086400D01*
X0081800Y0086400D01*
X0081800Y0082000D01*
X0074800Y0082000D01*
X0074800Y0081654D01*
X0074908Y0080970D01*
X0075122Y0080311D01*
X0075437Y0079694D01*
X0075844Y0079134D01*
X0076334Y0078644D01*
X0076894Y0078237D01*
X0077511Y0077922D01*
X0076249Y0078729D02*
X0067254Y0078729D01*
X0066534Y0080327D02*
X0075117Y0080327D01*
X0074800Y0081926D02*
X0064803Y0081926D01*
X0061800Y0077000D02*
X0066800Y0072000D01*
X0081800Y0072000D01*
X0077949Y0067539D02*
X0067283Y0067539D01*
X0067201Y0065940D02*
X0076693Y0065940D01*
X0075557Y0069137D02*
X0066884Y0069137D01*
X0066800Y0062000D02*
X0061800Y0057000D01*
X0056562Y0054751D02*
X0027559Y0054751D01*
X0029607Y0053152D02*
X0049033Y0053152D01*
X0047394Y0051554D02*
X0031206Y0051554D01*
X0026800Y0052000D02*
X0016800Y0057000D01*
X0019322Y0059546D02*
X0056685Y0059546D01*
X0056100Y0057948D02*
X0021165Y0057948D01*
X0024362Y0056349D02*
X0056100Y0056349D01*
X0050550Y0050750D02*
X0080550Y0050750D01*
X0081800Y0052000D01*
X0077680Y0056349D02*
X0067500Y0056349D01*
X0067500Y0057948D02*
X0076962Y0057948D01*
X0075445Y0054751D02*
X0067038Y0054751D01*
X0066800Y0062000D02*
X0081800Y0062000D01*
X0081800Y0078729D02*
X0081800Y0078729D01*
X0081800Y0080327D02*
X0081800Y0080327D01*
X0081800Y0081926D02*
X0081800Y0081926D01*
X0081800Y0083524D02*
X0081800Y0083524D01*
X0081800Y0085123D02*
X0081800Y0085123D01*
X0076100Y0085123D02*
X0053627Y0085123D01*
X0055048Y0083524D02*
X0075069Y0083524D01*
X0076375Y0088320D02*
X0064625Y0088320D01*
X0066223Y0089918D02*
X0075083Y0089918D01*
X0074600Y0091517D02*
X0066400Y0091517D01*
X0066400Y0093115D02*
X0074683Y0093115D01*
X0075127Y0094714D02*
X0065592Y0094714D01*
X0063993Y0096312D02*
X0073528Y0096312D01*
X0071930Y0097911D02*
X0029849Y0097911D01*
X0031448Y0096312D02*
X0059607Y0096312D01*
X0058008Y0094714D02*
X0033046Y0094714D01*
X0034645Y0093115D02*
X0057200Y0093115D01*
X0057200Y0091517D02*
X0036243Y0091517D01*
X0031521Y0088320D02*
X0025690Y0088320D01*
X0026223Y0089918D02*
X0029922Y0089918D01*
X0028324Y0091517D02*
X0026400Y0091517D01*
X0026400Y0093115D02*
X0026725Y0093115D01*
X0027786Y0086721D02*
X0033119Y0086721D01*
X0033698Y0085123D02*
X0029904Y0085123D01*
X0030384Y0083524D02*
X0035826Y0083524D01*
X0037774Y0083524D02*
X0048552Y0083524D01*
X0047766Y0081926D02*
X0030131Y0081926D01*
X0028946Y0080327D02*
X0046167Y0080327D01*
X0046800Y0077000D02*
X0051800Y0082000D01*
X0053268Y0078729D02*
X0056346Y0078729D01*
X0056100Y0077130D02*
X0050890Y0077130D01*
X0049291Y0075532D02*
X0056239Y0075532D01*
X0056901Y0073933D02*
X0011699Y0073933D01*
X0010196Y0072334D02*
X0058404Y0072334D01*
X0057758Y0070736D02*
X0024287Y0070736D01*
X0023623Y0071400D02*
X0026200Y0068823D01*
X0026200Y0067000D01*
X0021800Y0067000D01*
X0021800Y0067000D01*
X0021800Y0071400D01*
X0023623Y0071400D01*
X0021800Y0071400D02*
X0019977Y0071400D01*
X0017400Y0068823D01*
X0017400Y0067000D01*
X0021800Y0067000D01*
X0021800Y0067000D01*
X0021800Y0067000D01*
X0021800Y0071400D01*
X0021800Y0070736D02*
X0021800Y0070736D01*
X0021800Y0069137D02*
X0021800Y0069137D01*
X0021800Y0067539D02*
X0021800Y0067539D01*
X0021800Y0067000D02*
X0017400Y0067000D01*
X0017400Y0065177D01*
X0019977Y0062600D01*
X0021800Y0062600D01*
X0023623Y0062600D01*
X0026200Y0065177D01*
X0026200Y0067000D01*
X0021800Y0067000D01*
X0021800Y0062600D01*
X0021800Y0067000D01*
X0021800Y0067000D01*
X0021800Y0065940D02*
X0021800Y0065940D01*
X0021800Y0064342D02*
X0021800Y0064342D01*
X0021800Y0062743D02*
X0021800Y0062743D01*
X0023766Y0062743D02*
X0058302Y0062743D01*
X0057884Y0061145D02*
X0003800Y0061145D01*
X0003800Y0059546D02*
X0014278Y0059546D01*
X0013313Y0057948D02*
X0003800Y0057948D01*
X0003800Y0056349D02*
X0013216Y0056349D01*
X0013980Y0054751D02*
X0003800Y0054751D01*
X0003800Y0053152D02*
X0018234Y0053152D01*
X0021431Y0051554D02*
X0003800Y0051554D01*
X0007000Y0061500D02*
X0007233Y0061500D01*
X0008088Y0061635D01*
X0008911Y0061903D01*
X0009683Y0062296D01*
X0010383Y0062805D01*
X0010995Y0063417D01*
X0011504Y0064117D01*
X0011897Y0064889D01*
X0012165Y0065712D01*
X0012300Y0066567D01*
X0012300Y0066800D01*
X0007000Y0066800D01*
X0007000Y0061500D01*
X0007000Y0062743D02*
X0006600Y0062743D01*
X0006600Y0064342D02*
X0007000Y0064342D01*
X0007000Y0065940D02*
X0006600Y0065940D01*
X0010298Y0062743D02*
X0019834Y0062743D01*
X0018236Y0064342D02*
X0011618Y0064342D01*
X0012201Y0065940D02*
X0017400Y0065940D01*
X0017400Y0067539D02*
X0012283Y0067539D01*
X0011884Y0069137D02*
X0017715Y0069137D01*
X0019313Y0070736D02*
X0010842Y0070736D01*
X0006800Y0077000D02*
X0046800Y0077000D01*
X0049973Y0085123D02*
X0039902Y0085123D01*
X0026800Y0083250D02*
X0023050Y0087000D01*
X0006800Y0087000D01*
X0025885Y0069137D02*
X0056716Y0069137D01*
X0056317Y0067539D02*
X0026200Y0067539D01*
X0026200Y0065940D02*
X0056399Y0065940D01*
X0056982Y0064342D02*
X0025364Y0064342D01*
X0046800Y0047000D02*
X0050550Y0050750D01*
X0054987Y0080327D02*
X0057066Y0080327D01*
X0055384Y0081926D02*
X0058797Y0081926D01*
X0070331Y0099509D02*
X0028059Y0099509D01*
X0036800Y0122000D02*
X0071800Y0122000D01*
X0081800Y0112000D01*
X0080667Y0117093D02*
X0188100Y0117093D01*
X0188254Y0115494D02*
X0117411Y0115494D01*
X0118594Y0113896D02*
X0188916Y0113896D01*
X0190442Y0112297D02*
X0119000Y0112297D01*
X0118840Y0110699D02*
X0189438Y0110699D01*
X0188500Y0109100D02*
X0169769Y0109100D01*
X0170384Y0107502D02*
X0188100Y0107502D01*
X0188100Y0105903D02*
X0170225Y0105903D01*
X0169174Y0104305D02*
X0179036Y0104305D01*
X0178216Y0102706D02*
X0126466Y0102706D01*
X0124867Y0101108D02*
X0178290Y0101108D01*
X0166800Y0107000D02*
X0126800Y0107000D01*
X0111800Y0092000D01*
X0117783Y0085123D02*
X0128417Y0085123D01*
X0127900Y0084606D02*
X0127200Y0082915D01*
X0127200Y0081085D01*
X0127900Y0079394D01*
X0129194Y0078100D01*
X0130885Y0077400D01*
X0132715Y0077400D01*
X0134406Y0078100D01*
X0135700Y0079394D01*
X0136400Y0081085D01*
X0136400Y0082915D01*
X0135700Y0084606D01*
X0134406Y0085900D01*
X0132715Y0086600D01*
X0130885Y0086600D01*
X0129194Y0085900D01*
X0127900Y0084606D01*
X0127452Y0083524D02*
X0118748Y0083524D01*
X0119000Y0081926D02*
X0127200Y0081926D01*
X0127514Y0080327D02*
X0118686Y0080327D01*
X0117634Y0078729D02*
X0128566Y0078729D01*
X0127640Y0075532D02*
X0172384Y0075532D01*
X0172384Y0073933D02*
X0129879Y0073933D01*
X0130384Y0072334D02*
X0172384Y0072334D01*
X0172384Y0070736D02*
X0130156Y0070736D01*
X0126800Y0072000D02*
X0111800Y0072000D01*
X0115650Y0067539D02*
X0123379Y0067539D01*
X0124594Y0069137D02*
X0118043Y0069137D01*
X0116358Y0065940D02*
X0121781Y0065940D01*
X0120182Y0064342D02*
X0118137Y0064342D01*
X0111800Y0064342D02*
X0111800Y0064342D01*
X0111800Y0065940D02*
X0111800Y0065940D01*
X0111800Y0062743D02*
X0111800Y0062743D01*
X0111800Y0061145D02*
X0111800Y0061145D01*
X0111800Y0059546D02*
X0111800Y0059546D01*
X0111800Y0057948D02*
X0111800Y0057948D01*
X0111800Y0052000D02*
X0126800Y0067000D01*
X0171800Y0067000D01*
X0175184Y0065598D02*
X0171586Y0062000D01*
X0131800Y0062000D01*
X0129185Y0059546D02*
X0123306Y0059546D01*
X0121708Y0057948D02*
X0134143Y0057948D01*
X0133344Y0056349D02*
X0120109Y0056349D01*
X0118511Y0054751D02*
X0132545Y0054751D01*
X0131746Y0053152D02*
X0118902Y0053152D01*
X0119000Y0051554D02*
X0130946Y0051554D01*
X0129686Y0049955D02*
X0118532Y0049955D01*
X0124905Y0061145D02*
X0128275Y0061145D01*
X0128228Y0062743D02*
X0126503Y0062743D01*
X0125960Y0075532D02*
X0117374Y0075532D01*
X0135034Y0078729D02*
X0148849Y0078729D01*
X0147400Y0080327D02*
X0136086Y0080327D01*
X0136400Y0081926D02*
X0147400Y0081926D01*
X0147400Y0083524D02*
X0136148Y0083524D01*
X0135183Y0085123D02*
X0148700Y0085123D01*
X0156200Y0083524D02*
X0175826Y0083524D01*
X0174766Y0081926D02*
X0156200Y0081926D01*
X0156200Y0080327D02*
X0173167Y0080327D01*
X0193600Y0065940D02*
X0194000Y0065940D01*
X0194000Y0064342D02*
X0193600Y0064342D01*
X0193600Y0062743D02*
X0194000Y0062743D01*
X0194123Y0021182D02*
X0196650Y0021182D01*
X0196650Y0019584D02*
X0195722Y0019584D01*
X0196400Y0017985D02*
X0196650Y0017985D01*
X0196650Y0016387D02*
X0196400Y0016387D01*
X0196650Y0014788D02*
X0196093Y0014788D01*
X0196650Y0013190D02*
X0194495Y0013190D01*
X0196650Y0008394D02*
X0146400Y0008394D01*
X0146400Y0006796D02*
X0196650Y0006796D01*
X0196650Y0005197D02*
X0146400Y0005197D01*
X0120145Y0104305D02*
X0118424Y0104305D01*
X0116997Y0105903D02*
X0121743Y0105903D01*
X0123342Y0107502D02*
X0115561Y0107502D01*
X0118006Y0109100D02*
X0124940Y0109100D01*
X0117597Y0118691D02*
X0188331Y0118691D01*
X0188800Y0122000D02*
X0193800Y0127000D01*
X0188100Y0126684D02*
X0081076Y0126684D01*
X0078050Y0125750D02*
X0081800Y0122000D01*
X0078050Y0125750D02*
X0071800Y0125750D01*
X0071800Y0137000D02*
X0026800Y0137000D01*
X0031800Y0127000D02*
X0036800Y0122000D01*
X0055715Y0157056D02*
X0102896Y0157056D01*
X0104494Y0158654D02*
X0057414Y0158654D01*
X0059012Y0160253D02*
X0108644Y0160253D01*
X0107989Y0161851D02*
X0064407Y0161851D01*
X0065826Y0163450D02*
X0106391Y0163450D01*
X0109515Y0168245D02*
X0132961Y0168245D01*
X0130137Y0169844D02*
X0087916Y0169844D01*
X0086318Y0171442D02*
X0129466Y0171442D01*
X0139674Y0182000D02*
X0139674Y0184126D01*
X0136800Y0187000D01*
X0106800Y0187000D01*
X0101800Y0182000D01*
X0097200Y0182632D02*
X0083937Y0182632D01*
X0085536Y0184230D02*
X0097525Y0184230D01*
X0099123Y0185829D02*
X0086400Y0185829D01*
X0086400Y0187427D02*
X0103268Y0187427D01*
X0101800Y0187600D02*
X0101800Y0192000D01*
X0101800Y0192000D01*
X0101800Y0192000D01*
X0097400Y0192000D01*
X0097400Y0193823D01*
X0099977Y0196400D01*
X0101800Y0196400D01*
X0101800Y0192000D01*
X0097400Y0192000D01*
X0097400Y0190177D01*
X0099977Y0187600D01*
X0101800Y0187600D01*
X0101800Y0189026D02*
X0101800Y0189026D01*
X0101800Y0190624D02*
X0101800Y0190624D01*
X0101800Y0192223D02*
X0101800Y0192223D01*
X0101800Y0193821D02*
X0101800Y0193821D01*
X0101800Y0195420D02*
X0101800Y0195420D01*
X0104603Y0195420D02*
X0175240Y0195420D01*
X0174578Y0193821D02*
X0106200Y0193821D01*
X0106200Y0192223D02*
X0174190Y0192223D01*
X0174190Y0190624D02*
X0106200Y0190624D01*
X0098997Y0195420D02*
X0081400Y0195420D01*
X0081400Y0193821D02*
X0097400Y0193821D01*
X0097400Y0192223D02*
X0081028Y0192223D01*
X0084681Y0190624D02*
X0097400Y0190624D01*
X0098552Y0189026D02*
X0086280Y0189026D01*
X0081800Y0187000D02*
X0074300Y0179500D01*
X0064300Y0179500D01*
X0063050Y0180750D01*
X0066150Y0182632D02*
X0069946Y0182632D01*
X0071800Y0182632D02*
X0071800Y0182632D01*
X0071800Y0184230D02*
X0071800Y0184230D01*
X0071800Y0185829D02*
X0071800Y0185829D01*
X0071800Y0187427D02*
X0071800Y0187427D01*
X0071800Y0189026D02*
X0071800Y0189026D01*
X0071800Y0190624D02*
X0071800Y0190624D01*
X0072572Y0192223D02*
X0065384Y0192223D01*
X0065384Y0192713D02*
X0064839Y0194030D01*
X0063830Y0195039D01*
X0062513Y0195584D01*
X0061087Y0195584D01*
X0059770Y0195039D01*
X0059531Y0194800D01*
X0055505Y0194800D01*
X0053705Y0196600D01*
X0049895Y0196600D01*
X0047200Y0193905D01*
X0047200Y0190095D01*
X0049895Y0187400D01*
X0053705Y0187400D01*
X0055505Y0189200D01*
X0059531Y0189200D01*
X0059770Y0188961D01*
X0061087Y0188416D01*
X0062513Y0188416D01*
X0063830Y0188961D01*
X0064839Y0189970D01*
X0065384Y0191287D01*
X0065384Y0192713D01*
X0064925Y0193821D02*
X0072200Y0193821D01*
X0072200Y0195420D02*
X0062910Y0195420D01*
X0060690Y0195420D02*
X0054885Y0195420D01*
X0051800Y0192000D02*
X0061800Y0192000D01*
X0065110Y0190624D02*
X0069202Y0190624D01*
X0067603Y0189026D02*
X0063895Y0189026D01*
X0067400Y0187427D02*
X0053733Y0187427D01*
X0055331Y0189026D02*
X0059705Y0189026D01*
X0049867Y0187427D02*
X0035384Y0187427D01*
X0035194Y0185829D02*
X0049406Y0185829D01*
X0047808Y0184230D02*
X0034099Y0184230D01*
X0034840Y0189026D02*
X0048269Y0189026D01*
X0047200Y0190624D02*
X0032135Y0190624D01*
X0030537Y0192223D02*
X0047200Y0192223D01*
X0047200Y0193821D02*
X0028938Y0193821D01*
X0021441Y0195420D02*
X0048714Y0195420D01*
X0075997Y0189026D02*
X0077320Y0189026D01*
X0077200Y0187427D02*
X0076200Y0187427D01*
X0076200Y0185829D02*
X0076669Y0185829D01*
X0079793Y0181033D02*
X0097200Y0181033D01*
X0094166Y0179435D02*
X0078195Y0179435D01*
X0076596Y0177836D02*
X0093267Y0177836D01*
X0096800Y0177000D02*
X0151800Y0177000D01*
X0154508Y0174639D02*
X0157747Y0174639D01*
X0157146Y0176238D02*
X0155364Y0176238D01*
X0155333Y0177836D02*
X0157146Y0177836D01*
X0157778Y0179435D02*
X0154434Y0179435D01*
X0152517Y0181033D02*
X0157966Y0181033D01*
X0157398Y0182632D02*
X0152517Y0182632D01*
X0152002Y0184230D02*
X0157439Y0184230D01*
X0157346Y0183299D02*
X0161721Y0183299D01*
X0157346Y0183299D01*
X0158152Y0185829D02*
X0150746Y0185829D01*
X0144350Y0185829D02*
X0142315Y0185829D01*
X0140332Y0187427D02*
X0160269Y0187427D01*
X0161721Y0187427D02*
X0161721Y0187427D01*
X0161721Y0187674D02*
X0161721Y0183299D01*
X0161721Y0183299D01*
X0161721Y0183299D01*
X0161721Y0187674D01*
X0163173Y0187427D02*
X0175196Y0187427D01*
X0174534Y0189026D02*
X0138734Y0189026D01*
X0161721Y0185829D02*
X0161721Y0185829D01*
X0161721Y0184230D02*
X0161721Y0184230D01*
X0165291Y0185829D02*
X0176579Y0185829D01*
X0179150Y0184230D02*
X0168549Y0184230D01*
X0170369Y0182632D02*
X0196650Y0182632D01*
X0196650Y0184230D02*
X0184450Y0184230D01*
X0187021Y0185829D02*
X0196650Y0185829D01*
X0196650Y0187427D02*
X0188404Y0187427D01*
X0189066Y0189026D02*
X0196650Y0189026D01*
X0196650Y0190624D02*
X0189410Y0190624D01*
X0189410Y0192223D02*
X0196650Y0192223D01*
X0196650Y0193821D02*
X0189022Y0193821D01*
X0188360Y0195420D02*
X0196650Y0195420D01*
X0196650Y0181033D02*
X0171020Y0181033D01*
X0171020Y0179435D02*
X0196650Y0179435D01*
X0196650Y0177836D02*
X0170439Y0177836D01*
X0170409Y0176238D02*
X0196650Y0176238D01*
X0196650Y0174639D02*
X0171020Y0174639D01*
X0171020Y0173041D02*
X0196650Y0173041D01*
X0196650Y0171442D02*
X0170400Y0171442D01*
X0168727Y0169844D02*
X0179329Y0169844D01*
X0180286Y0170240D02*
X0177489Y0169082D01*
X0175348Y0166941D01*
X0174190Y0164144D01*
X0174190Y0161116D01*
X0175348Y0158319D01*
X0177489Y0156178D01*
X0180286Y0155020D01*
X0183314Y0155020D01*
X0186111Y0156178D01*
X0188252Y0158319D01*
X0189410Y0161116D01*
X0189410Y0164144D01*
X0188252Y0166941D01*
X0186111Y0169082D01*
X0183314Y0170240D01*
X0180286Y0170240D01*
X0184271Y0169844D02*
X0196650Y0169844D01*
X0196650Y0168245D02*
X0186947Y0168245D01*
X0188373Y0166647D02*
X0196650Y0166647D01*
X0196650Y0165048D02*
X0189036Y0165048D01*
X0189410Y0163450D02*
X0196650Y0163450D01*
X0196650Y0161851D02*
X0189410Y0161851D01*
X0189053Y0160253D02*
X0196650Y0160253D01*
X0196650Y0158654D02*
X0188390Y0158654D01*
X0186988Y0157056D02*
X0196650Y0157056D01*
X0196650Y0155457D02*
X0184370Y0155457D01*
X0179230Y0155457D02*
X0149217Y0155457D01*
X0150815Y0157056D02*
X0176612Y0157056D01*
X0175210Y0158654D02*
X0153088Y0158654D01*
X0154956Y0160253D02*
X0174547Y0160253D01*
X0174190Y0161851D02*
X0155384Y0161851D01*
X0155079Y0163450D02*
X0174190Y0163450D01*
X0174564Y0165048D02*
X0153807Y0165048D01*
X0151800Y0162000D02*
X0146800Y0157000D01*
X0106800Y0157000D01*
X0096800Y0147000D01*
X0100210Y0145866D02*
X0107096Y0145866D01*
X0108129Y0147465D02*
X0101224Y0147465D01*
X0102823Y0149063D02*
X0105632Y0149063D01*
X0104775Y0150662D02*
X0104421Y0150662D01*
X0105417Y0144268D02*
X0099136Y0144268D01*
X0111800Y0144268D02*
X0111800Y0144268D01*
X0111800Y0145866D02*
X0111800Y0145866D01*
X0111800Y0142669D02*
X0111800Y0142669D01*
X0111800Y0141070D02*
X0111800Y0141070D01*
X0111800Y0139472D02*
X0111800Y0139472D01*
X0111800Y0137873D02*
X0111800Y0137873D01*
X0115939Y0137873D02*
X0129704Y0137873D01*
X0129977Y0137600D02*
X0127400Y0140177D01*
X0127400Y0142000D01*
X0131800Y0142000D01*
X0131800Y0142000D01*
X0131800Y0146400D01*
X0133623Y0146400D01*
X0136200Y0143823D01*
X0136200Y0142000D01*
X0131800Y0142000D01*
X0131800Y0142000D01*
X0131800Y0142000D01*
X0131800Y0146400D01*
X0129977Y0146400D01*
X0127400Y0143823D01*
X0127400Y0142000D01*
X0131800Y0142000D01*
X0136200Y0142000D01*
X0136200Y0140177D01*
X0133623Y0137600D01*
X0131800Y0137600D01*
X0131800Y0142000D01*
X0131800Y0142000D01*
X0131800Y0137600D01*
X0129977Y0137600D01*
X0131800Y0137873D02*
X0131800Y0137873D01*
X0131800Y0139472D02*
X0131800Y0139472D01*
X0131800Y0141070D02*
X0131800Y0141070D01*
X0131800Y0142669D02*
X0131800Y0142669D01*
X0131800Y0144268D02*
X0131800Y0144268D01*
X0131800Y0145866D02*
X0131800Y0145866D01*
X0134156Y0145866D02*
X0196650Y0145866D01*
X0196650Y0144268D02*
X0135755Y0144268D01*
X0136200Y0142669D02*
X0192591Y0142669D01*
X0195009Y0142669D02*
X0196650Y0142669D01*
X0193800Y0137000D02*
X0188800Y0132000D01*
X0111800Y0132000D01*
X0116100Y0136275D02*
X0188100Y0136275D01*
X0188100Y0137873D02*
X0133896Y0137873D01*
X0135495Y0139472D02*
X0188654Y0139472D01*
X0189809Y0141070D02*
X0136200Y0141070D01*
X0133770Y0147465D02*
X0196650Y0147465D01*
X0196650Y0149063D02*
X0135368Y0149063D01*
X0136400Y0150662D02*
X0196650Y0150662D01*
X0196650Y0152260D02*
X0136400Y0152260D01*
X0136400Y0153859D02*
X0196650Y0153859D01*
X0176653Y0168245D02*
X0165656Y0168245D01*
X0163888Y0166647D02*
X0175227Y0166647D01*
X0188162Y0128282D02*
X0117188Y0128282D01*
X0117820Y0125085D02*
X0187926Y0125085D01*
X0188800Y0122000D02*
X0111800Y0122000D01*
X0118002Y0139472D02*
X0128105Y0139472D01*
X0127400Y0141070D02*
X0118708Y0141070D01*
X0118749Y0142669D02*
X0127400Y0142669D01*
X0127845Y0144268D02*
X0118183Y0144268D01*
X0116504Y0145866D02*
X0129443Y0145866D01*
X0129830Y0147465D02*
X0115471Y0147465D01*
X0117968Y0149063D02*
X0128232Y0149063D01*
X0131800Y0152000D02*
X0111800Y0152000D01*
X0086800Y0167000D02*
X0081800Y0172000D01*
X0061800Y0165750D02*
X0060550Y0165750D01*
X0054300Y0159500D01*
D19*
X0063050Y0180750D03*
X0061800Y0192000D03*
X0081800Y0172000D03*
X0096800Y0177000D03*
X0111800Y0162000D03*
X0096800Y0147000D03*
X0071800Y0137000D03*
X0071800Y0125750D03*
X0036800Y0087000D03*
X0026800Y0083250D03*
X0051800Y0082000D03*
X0046800Y0047000D03*
X0051800Y0037000D03*
X0031800Y0047000D03*
X0028416Y0042000D03*
X0016800Y0057000D03*
X0031800Y0127000D03*
X0026800Y0137000D03*
X0026800Y0177000D03*
X0031800Y0187000D03*
X0133050Y0172000D03*
X0151800Y0177000D03*
X0151800Y0162000D03*
X0166800Y0107000D03*
X0181800Y0102000D03*
X0176800Y0087000D03*
X0171800Y0067000D03*
X0181800Y0067000D03*
X0181800Y0052000D03*
X0136800Y0037000D03*
X0131800Y0047000D03*
X0131800Y0062000D03*
X0126800Y0072000D03*
X0096800Y0037000D03*
X0096800Y0032000D03*
X0088416Y0037000D03*
X0091800Y0022000D03*
X0121800Y0027000D03*
M02*
