%
M48
M72
T01C0.01969
T02C0.03150
T03C0.03200
T04C0.03937
T05C0.04000
T06C0.07480
%
T01
X28416Y42000
X31800Y47000
X16800Y57000
X26800Y83250
X36800Y87000
X51800Y82000
X46800Y47000
X51800Y37000
X88416Y37000
X96800Y37000
X96800Y32000
X91800Y22000
X121800Y27000
X136800Y37000
X131800Y47000
X131800Y62000
X126800Y72000
X166800Y107000
X181800Y102000
X176800Y87000
X171800Y67000
X181800Y67000
X181800Y52000
X96800Y147000
X111800Y162000
X96800Y177000
X81800Y172000
X63050Y180750
X61800Y192000
X31800Y187000
X26800Y177000
X26800Y137000
X31800Y127000
X71800Y125750
X71800Y137000
X133050Y172000
X151800Y177000
X151800Y162000
T02
X123926Y182000
X131800Y182000
X139674Y182000
X161721Y183299
X166446Y180150
X161721Y177000
X166446Y173850
X161721Y170701
T03
X41800Y165750
X51800Y182000
X51800Y192000
X71800Y187000
X76800Y194500
X81800Y187000
X101800Y182000
X101800Y192000
X111800Y152000
X111800Y142000
X111800Y132000
X111800Y122000
X111800Y112000
X111800Y102000
X111800Y92000
X111800Y82000
X111800Y72000
X111800Y62000
X111800Y52000
X111800Y42000
X111800Y32000
X111800Y22000
X101800Y7000
X81800Y22000
X81800Y32000
X81800Y42000
X81800Y52000
X81800Y62000
X81800Y72000
X81800Y82000
X81800Y92000
X81800Y102000
X81800Y112000
X81800Y122000
X81800Y132000
X81800Y142000
X81800Y152000
X61800Y165750
X131800Y152000
X131800Y142000
X131800Y82000
X151800Y82000
X151800Y37000
X141800Y7000
X181800Y17000
X191800Y17000
X191800Y37000
X66800Y32000
X66800Y22000
X21800Y27000
X16800Y17000
X6800Y17000
X21800Y67000
X21800Y92000
X61800Y92000
T04
X116052Y182000
X147548Y182000
T05
X16800Y192000
X16800Y182000
X16800Y172000
X16800Y162000
X16800Y152000
X6800Y137000
X6800Y127000
X6800Y117000
X6800Y107000
X6800Y97000
X6800Y87000
X6800Y77000
X6800Y67000
X31800Y17000
X51800Y17000
X61800Y57000
X61800Y67000
X61800Y77000
X146800Y17000
X166800Y17000
X193800Y67000
X193800Y77000
X193800Y87000
X193800Y97000
X193800Y107000
X193800Y117000
X193800Y127000
X193800Y137000
T06
X181800Y191370
X181800Y162630
M30
