G75*
%MOIN*%
%OFA0B0*%
%FSLAX25Y25*%
%IPPOS*%
%LPD*%
%AMOC8*
5,1,8,0,0,1.08239X$1,22.5*
%
%ADD10C,0.00000*%
%ADD11C,0.00400*%
%ADD12C,0.00500*%
D10*
X0001800Y0002000D02*
X0001800Y0198850D01*
X0198650Y0198850D01*
X0198650Y0002000D01*
X0001800Y0002000D01*
D11*
X0128914Y0116503D02*
X0131316Y0114101D01*
X0131316Y0113500D01*
X0132597Y0113500D02*
X0134999Y0113500D01*
X0133798Y0113500D02*
X0133798Y0117103D01*
X0134999Y0115902D01*
X0136280Y0116503D02*
X0136280Y0114101D01*
X0136881Y0113500D01*
X0138082Y0113500D01*
X0138682Y0114101D01*
X0136280Y0116503D01*
X0136881Y0117103D01*
X0138082Y0117103D01*
X0138682Y0116503D01*
X0138682Y0114101D01*
X0139964Y0113500D02*
X0142366Y0113500D01*
X0139964Y0115902D01*
X0139964Y0116503D01*
X0140564Y0117103D01*
X0141765Y0117103D01*
X0142366Y0116503D01*
X0141792Y0119500D02*
X0141191Y0120101D01*
X0141792Y0119500D02*
X0142993Y0119500D01*
X0143593Y0120101D01*
X0143593Y0122503D01*
X0142993Y0123103D01*
X0141792Y0123103D01*
X0141191Y0122503D01*
X0139910Y0120101D02*
X0139310Y0120101D01*
X0139310Y0119500D01*
X0139910Y0119500D01*
X0139910Y0120101D01*
X0147904Y0117103D02*
X0147904Y0113500D01*
X0148504Y0113500D02*
X0147303Y0113500D01*
X0149759Y0113500D02*
X0150960Y0113500D01*
X0150359Y0113500D02*
X0150359Y0115902D01*
X0150960Y0115902D01*
X0152227Y0115902D02*
X0152828Y0115902D01*
X0154029Y0114701D01*
X0154029Y0113500D02*
X0154029Y0115902D01*
X0155310Y0115302D02*
X0155310Y0114101D01*
X0155910Y0113500D01*
X0157712Y0113500D01*
X0157712Y0112299D02*
X0157712Y0115902D01*
X0155910Y0115902D01*
X0155310Y0115302D01*
X0158993Y0115302D02*
X0161395Y0115302D01*
X0161395Y0115902D02*
X0160194Y0117103D01*
X0158993Y0115902D01*
X0158993Y0113500D01*
X0161395Y0113500D02*
X0161395Y0115902D01*
X0161449Y0119500D02*
X0163250Y0119500D01*
X0163851Y0120101D01*
X0163250Y0120701D01*
X0161449Y0120701D01*
X0161449Y0121302D02*
X0161449Y0119500D01*
X0160167Y0119500D02*
X0160167Y0121902D01*
X0160167Y0120701D02*
X0158966Y0121902D01*
X0158366Y0121902D01*
X0157098Y0121902D02*
X0156498Y0121902D01*
X0156498Y0119500D01*
X0157098Y0119500D02*
X0155897Y0119500D01*
X0154643Y0119500D02*
X0152841Y0119500D01*
X0152241Y0120101D01*
X0152841Y0120701D01*
X0154042Y0120701D01*
X0154643Y0121302D01*
X0154042Y0121902D01*
X0152241Y0121902D01*
X0150960Y0121302D02*
X0150359Y0121902D01*
X0149158Y0121902D01*
X0148558Y0121302D01*
X0148558Y0119500D01*
X0148504Y0117103D02*
X0147904Y0117103D01*
X0150359Y0117103D02*
X0150359Y0117704D01*
X0150960Y0119500D02*
X0150960Y0123103D01*
X0156498Y0123103D02*
X0156498Y0123704D01*
X0161449Y0121302D02*
X0162049Y0121902D01*
X0163250Y0121902D01*
X0165132Y0121302D02*
X0165132Y0120101D01*
X0165732Y0119500D01*
X0167534Y0119500D01*
X0167534Y0123103D01*
X0167534Y0121902D02*
X0165732Y0121902D01*
X0165132Y0121302D01*
X0168815Y0121302D02*
X0168815Y0119500D01*
X0170616Y0119500D01*
X0171217Y0120101D01*
X0170616Y0120701D01*
X0168815Y0120701D01*
X0168815Y0121302D02*
X0169415Y0121902D01*
X0170616Y0121902D01*
X0172498Y0122503D02*
X0173098Y0123103D01*
X0174299Y0123103D01*
X0174900Y0122503D01*
X0174900Y0121902D01*
X0174299Y0121302D01*
X0173098Y0121302D01*
X0172498Y0120701D01*
X0172498Y0120101D01*
X0173098Y0119500D01*
X0174299Y0119500D01*
X0174900Y0120101D01*
X0174900Y0117103D02*
X0172498Y0113500D01*
X0172498Y0117103D01*
X0171217Y0117103D02*
X0171217Y0114101D01*
X0170616Y0113500D01*
X0169415Y0113500D01*
X0168815Y0114101D01*
X0168815Y0117103D01*
X0166933Y0114101D02*
X0166933Y0113500D01*
X0166333Y0113500D01*
X0166333Y0114101D01*
X0166933Y0114101D01*
X0166333Y0113500D02*
X0167534Y0112299D01*
X0174900Y0113500D02*
X0174900Y0117103D01*
X0131316Y0117103D02*
X0128914Y0117103D01*
X0128914Y0116503D01*
D12*
X0161131Y0161646D02*
X0196564Y0161646D01*
X0196564Y0192354D01*
X0161131Y0192354D01*
X0161131Y0161646D01*
X0174910Y0174047D02*
X0174910Y0179953D01*
X0194595Y0181921D01*
X0194595Y0184874D02*
X0176879Y0182906D01*
X0176879Y0190780D02*
X0194595Y0188811D01*
X0194595Y0184874D01*
X0194595Y0172079D02*
X0174910Y0174047D01*
X0178847Y0171094D02*
X0194595Y0169126D01*
X0194595Y0165189D01*
X0178847Y0163220D01*
M02*
